<svg xmlns="http://www.w3.org/2000/svg" viewBox="0 0 477.57 477.21"><defs><style>.cls-1{isolation:isolate}.cls-2{fill:#94d1d4}.cls-3{fill:#9ac43b}.cls-4{fill:none}.cls-5{fill:#302824}.cls-6{fill:#ffe1a7}.cls-7{opacity:.1;mix-blend-mode:multiply}.cls-8{fill:#0857a3}.cls-9{fill:#fff}.cls-10{fill:#8f5617}.cls-11{fill:#fcea1c}.cls-12{fill:#f28f1b}.cls-13{fill:#f9b214}.cls-14{fill:#89a0c9}.cls-15{fill:#bebcbc}.cls-16{fill:#d2914f}.cls-17{fill:#e72870}.cls-18{fill:#21a4de}.cls-19{fill:#fcdac5}.cls-20{fill:#008f6b}.cls-21{fill:#e85013}.cls-22{fill:#633f1e}.cls-23{fill:#a7368c}.cls-24{fill:#f9ae14}.cls-25{fill:#555454}.cls-26{fill:#02a339}.cls-27{fill:#e84a17}.cls-28{fill:#e30613}.cls-29{fill:#008ace}.cls-30{fill:#d36813}.cls-31{fill:#060707}.cls-32{fill:#007e76}.cls-33{fill:#746b67}.cls-34{fill:#135628}.cls-35{fill:#161616}.cls-36{fill:#d7056f}</style></defs><title>HC-World</title><g class="cls-1"><g id="EARTH"><path d="M413.26,238.81A174.57,174.57,0,1,1,238.69,64.24,174.56,174.56,0,0,1,413.26,238.81Z" class="cls-2" transform="translate(0 0)"/><path d="M204.94,75.13c-6,5.17-15.17,12.65-8.09,12.65s10.52-3.71,14.37,1.18,2.32,12.48,2.32,16-2,11.64,3,21.76,5.57,16.69,10.63,10.12,17.2-19.23,23.27-20.24,12.14-3.54,15.18-8.6,0-10,5.06-13.59,4-8.17,5.56-13.74,15.19-5.56,9.11-8.59S268.19,67,255,68.55s-39-3-50.1,6.58" class="cls-3" transform="translate(0 0)"/><path d="M149.29,231.47c-3.22,5.25-1.52,5.57,2,6.58s-1.51,7.08,2.53,7.59,13.16,3,15.69,0-4.05-1.85-8.6-5.23-9.36-12.67-11.64-8.94" class="cls-3" transform="translate(0 0)"/><path d="M301.08,143.94c-3.11.93-5.57,7.08-4.05,10.12s-1.52-1.52-5.57,1-10.06,9.61-4.52,10.12,4.52-4.05,9.58-2,10.63,1.51,10.63-3.55-1-17.2-6.07-15.68" class="cls-3" transform="translate(0 0)"/><path d="M268.19,120.67c-3.05.43-4.05,8.09,2.53,9.1s18.35-1.52,14-5.56-9.43-4.56-16.51-3.54" class="cls-3" transform="translate(0 0)"/><path d="M413.26,238.81A174.57,174.57,0,1,1,238.69,64.24,174.56,174.56,0,0,1,413.26,238.81Z" class="cls-4" transform="translate(0 0)"/><path d="M410.36,229.45c.9.55,1.81,1.1,2.72,1.62a173.79,173.79,0,0,0-39.25-102.76c-5.07,2.81-11.94,2-11-1.63,1-4,7.58-3-3.55-10.57s-13.15-14.17-21.75-4.55-10.63,17.71-15.69,20.24-9.11,10.62-3.54,12.65,6.07,0,10.63,4,10.62,3,11.63.51,2-10.63,2.53-13.66,5.65-13.16,5.1-5.06,7.05,8.09,2,13.66-2,10.12-12.15,11.13-10.62-5.06-16.19-2-5.06,5.06-7.08,8.09-12.65,9.11-12.65,9.11-8.6-3-4.56,2.53,7.6,12.14,4.05,12.65-13.15-5.06-13.15,1-1.52,12.65,2.53,14.17c2.85,1.07,4.71,3.39,7.33,3.06a13.14,13.14,0,0,0-5.31,4c-3.93,5.15-1.51,14.17-9.61,17.2s-8.1,6.58-9.61,13.16,0,23.27,2,24.79S281.34,277,289.94,276s17.72-1.41,20.75.05,8.1-3.09,9.61,8.55,5.06,13.15,7.09,19.23-1,18.71,0,26.31,8.09,20.74,8.09,27.32,7.59,9.61,11.64,7.08,12.65-7.59,16.19-15.69,3.54-12.14,9.11-22.76,4.05-18.22,6.57-26.31,8.62-13.67,17-22.78,6.84-14.16,0-13.66-11.4-6.07-14.94-14.16-7.58-28.33-4.54-21.75,9.1,24.79,15.17,27.82,17.21-5.16,19.74-8.14,1.51-11.59-5.06-15.13S403.79,225.4,410.36,229.45Zm-41-22.27c-.5,4,1.52,10.63-9.61,8.1s-11.13-8.6-15.68-4.05-10.13,8.6-16.7,1.52-5.57-9.11-9.11-9.61c-2.52-.36-10.93-2.24-17.95-.2a10.59,10.59,0,0,0,1.76-1.32c5.06-4.55,4.05-6.07,9.61-11.13s9.62-9.61,13.66-5.06S338,191,335,196.05s-1,8.1,2.53,5.06,8.6-5.06,5.06-9.1-7.09-14.68-2-7.59,6.58,10.62,9.62,14.67,6.07,6.58,7.08,4-.51-8.1,1-9.11,0,8.6,4.56,9.11S369.89,203.14,369.38,207.18ZM381,190c-3.54-2-10.11,0-18.2,2.53s-1.62-5.63,2-11.13c3.26-4.91,1.51,1.52,8.6,2S384.56,192,381,190Zm17.72,15.69c-1.52,1.51-4.05-7.09-5.57-11.13s-1.48-11.08,2.79-15c5.32-4.87,2.78,6.4,2.78,12.47S400.24,204.15,398.73,205.67Z" class="cls-3" transform="translate(0 0)"/><path d="M118.22,112.47c4,2,6.65,4.57,2.23,6.17-2.31.84-5.59.72-8.92.59A174.94,174.94,0,0,0,84.24,157.4c.64,7.45,2.37,12.55.28,17.4-3,7.09-6.57,19.74-3.54,28.34S88.57,230.46,92.62,231s-3-20.24,1-13.67,4.05,16.37,11.13,23.11,16.7,5.73,24.29,12.31,15.18,16.19,22.26,15.18c0,0-.5,5.06-4.05,13.66s-4,18.72.51,24.79,9.11,15.18,13.16,19.74,7.08,28.83,6.07,41c-.68,8.14,1.6,23.11,7,33.92,2.85,1.13,5.73,2.2,8.65,3.19a14.93,14.93,0,0,1-1-2.2c-2.53-7.59,2-25.3,8.06-27.83S201.4,361.5,206,354.42s16.19-10.12,19.73-18.72,2-18.72,4.05-23.27,7.58-14.68-4.56-20.75-17.2-3-17.7-8.6-3.55-11.64-12.15-14.17-16.19-7.44-25.8-8.53-11.64,6.51-16.7,2.46-9.11-8.09-11.13-13.15-8.1-2-7.59-5.06,8.6-11.64-.51-8.61-17.2,2-16.69-6.07,11.64-11.13,16.19-12.14,8.09,4.55,13.66,8.09.5-5.05,3.54-11.13,14.67-5.56,16.19-14.16-.5-15.69,8.6-16.7,18.72.51,19.73-4-10.62,1.52-11.13-4.05,10.12-13.15,13.16-7.58,10.63,6.07,11.64,4,0-5.56-3.54-14.16-7.09-6.07-10.13-15.69-8.09.51-13.15-4.55-11.13-15.69-12.14-6.58-1,14.17-5.57,21.25-6.58,1.52-10.62-3-13.16-9.11-10.12-13.16,6.07-14.67,10.62-11.64,11.64,3,10.63-2,0-7.08,2-9.61,9.11-7.09,9.11,2-1,11.64,6.07,12.65,15.18,1.52,14.67-3,2-3.54,0-11.13-8.09-8.09-14.67-11.64-10.12-9.1-15.68-7.08-6.08,4-6.58,9.62-3.54,7.59-5.57,5,.51-10.62-7.08-5.56-10.63,13.66-14.68,7.59c-2.35-3.53.08-8.59.45-11.32A173.81,173.81,0,0,0,118.22,112.47Z" class="cls-3" transform="translate(0 0)"/><path d="M150.81,95.87c5.06-5.05,8.09-11.13,11.64-8.6s9.61,1.86,12.14,1.69,3-7.76,10.11-6.75,4.56-1.51,12.15-5.56c7.27-3.88,22.4-10.53,9-9.31A173.57,173.57,0,0,0,144.25,92C144.44,97,146.1,100.58,150.81,95.87Z" class="cls-3" transform="translate(0 0)"/><path d="M394.17,313.94c-5.45,2.73-3,7.08-8.09,10.12s-3,4.05-4.55,11.13a20,20,0,0,0-.51,4.71,173.93,173.93,0,0,0,14.9-25.17C395.81,313.75,395.28,313.39,394.17,313.94Z" class="cls-3" transform="translate(0 0)"/></g><g id="PEOPLE"><path d="M201.05,63l.31,1.77a3.33,3.33,0,1,0,6.55-1.16,3.33,3.33,0,1,0,6.55-1.15l-.32-1.77Z" class="cls-5" transform="translate(0 0)"/><path d="M188.65,37c.35.64-.29,1.68-1.43,2.31l-.46.26c-1.13.64-2.34.64-2.69,0l-.7-1.29c-.35-.65.29-1.68,1.43-2.32l.46-.26c1.13-.63,2.34-.63,2.69,0Z" class="cls-6" transform="translate(0 0)"/><path d="M216.88,32c-.11.72.84,1.48,2.13,1.69l.52.08c1.28.21,2.42-.2,2.53-.92l.21-1.45c.11-.73-.85-1.48-2.13-1.69l-.52-.08c-1.28-.21-2.41.2-2.52.92Z" class="cls-6" transform="translate(0 0)"/><path d="M208.07,12.42a9.06,9.06,0,0,0-17.94,1.47,8.92,8.92,0,0,0,.16,2,9.37,9.37,0,0,0,6.76,6.94l1.22,6.93,7.08-1.25-1.22-6.91A9.41,9.41,0,0,0,208.07,12.42Z" class="cls-6" transform="translate(0 0)"/><rect width="13.3" height="19.03" x="199.29" y="42.99" class="cls-3" transform="translate(-5.99 36.56) rotate(-10)"/><polygon points="207.19 61.94 204.66 45.22 208 61.8 207.19 61.94" class="cls-7"/><path d="M214.55,28.2s-5.73-4.72-6.62-4.92a12.1,12.1,0,0,0-3.55-.42l-2.86,4.55-4.25-3.29a11.65,11.65,0,0,0-3.19,1.6c-.76.5-4.54,6.89-4.54,6.89l-3.24,3,2.09,2.21,4.2-2.76,2.84-3.56.56,8.89,1,5.6h0l15.12-2.67h0l-1-5.73-2.5-8.42,3.89,2.37,4.9,1.16,1.2-2.79Z" class="cls-8" transform="translate(0 0)"/><path d="M196.7,19.45a3.63,3.63,0,0,0,6.63-1.16Z" class="cls-9" transform="translate(0 0)"/><path d="M196.78,15.85a.71.71,0,1,1-.82-.57A.71.71,0,0,1,196.78,15.85Z" class="cls-5" transform="translate(0 0)"/><path d="M203.41,14.68a.7.7,0,0,1-.57.82.71.71,0,1,1,.57-.82Z" class="cls-5" transform="translate(0 0)"/><rect width="1.64" height=".46" x="195" y="14.22" class="cls-5" transform="translate(0.47 34.27) rotate(-10.01)"/><rect width="1.64" height=".46" x="201.62" y="13.05" class="cls-5" transform="translate(0.77 35.37) rotate(-10)"/><path d="M208.85,10.91l.88-1.65-1.62-1,1.52-1.77L207,5.77,207.09,3l-2.62.57L202.84,1l-2.25,1.65L198.28.31l-1.72,2.82-2.76-1.5-.69,3.43-4.36.11.52.89a10.19,10.19,0,0,1,1,2.17,8.72,8.72,0,0,1-2.06.53l-.95.14,1.55,2.33-1.41,1.35,1.45,1.58-.45,1.11.21.27a15.27,15.27,0,0,1,1.45,2.31l.19.44,1.57-.27-.26-.69s-1.26-3.43.53-6.14a6.6,6.6,0,0,1,.89.13,10.45,10.45,0,0,0,2,.24,9.09,9.09,0,0,0,2.05-.21,15.42,15.42,0,0,0,7.12-2.72c2.47,1.82,3.28,6.16,3.28,6.2l.11.59,1.43-.24,0-.47a9.81,9.81,0,0,1,.7-2.39l.16-.37Z" class="cls-5" transform="translate(0 0)"/><polygon points="248.64 17.87 228.95 17.87 229.23 10.97 248.29 9.41 248.64 17.87" class="cls-10"/><path d="M232.14,59.14v1.79a3.33,3.33,0,1,0,6.65,0,3.33,3.33,0,1,0,6.65,0V59.14Z" class="cls-5" transform="translate(0 0)"/><path d="M224.46,31.32c.23.69-.58,1.6-1.81,2l-.49.17c-1.23.43-2.42.22-2.65-.47L219,31.66c-.23-.7.58-1.6,1.81-2l.5-.18c1.22-.43,2.41-.21,2.64.48Z" class="cls-6" transform="translate(0 0)"/><path d="M253.13,31.32c-.23.69.57,1.6,1.8,2l.5.17c1.23.43,2.42.22,2.65-.47l.46-1.39c.23-.7-.58-1.6-1.8-2l-.5-.18c-1.23-.43-2.41-.21-2.65.48Z" class="cls-6" transform="translate(0 0)"/><path d="M247.85,10.52a9.06,9.06,0,1,0-18.11.31,9.39,9.39,0,0,0,5.45,8v7h7.19v-7A9.41,9.41,0,0,0,247.85,10.52Z" class="cls-6" transform="translate(0 0)"/><polygon points="232.57 40.11 232.57 59.14 238.41 59.14 238.79 42.23 239.18 59.14 245.02 59.14 245.02 40.11 232.57 40.11" class="cls-6"/><path d="M251.49,27.19s-4.82-5.64-5.67-6a11.93,11.93,0,0,0-3.42-1l-3.61,4-3.61-4a12,12,0,0,0-3.41,1c-.85.35-5.68,6-5.68,6l-3.71,2.39,1.68,2.54,4.61-2,3.42-3V36l-2,19.7H247.5l-2-19.82V27.12l3.41,3,4.62,2,1.67-2.54Z" class="cls-11" transform="translate(0 0)"/><path d="M235.43,15.48a3.63,3.63,0,0,0,6.73,0Z" class="cls-9" transform="translate(0 0)"/><path d="M236.14,11.94a.71.71,0,1,1-.71-.71A.71.71,0,0,1,236.14,11.94Z" class="cls-5" transform="translate(0 0)"/><path d="M242.87,11.94a.71.71,0,1,1-.71-.71A.71.71,0,0,1,242.87,11.94Z" class="cls-5" transform="translate(0 0)"/><rect width="1.64" height=".46" x="234.61" y="10.16" class="cls-5"/><rect width="1.64" height=".46" x="241.34" y="10.16" class="cls-5"/><path d="M232.88,5.7A8.43,8.43,0,0,0,231,11.05,12.86,12.86,0,0,0,232,16.62a6.92,6.92,0,0,1-2.8-5.17s-.68-7.66,5.3-10.37,10.21.09,12.34,3.56a9.36,9.36,0,0,1,1,8.18,12.34,12.34,0,0,1-1.62,3.68c.33-1.32.76-.57.36-6.42-.85-.29-8.66,2.08-13.71-4.38" class="cls-10" transform="translate(0 0)"/><path d="M263.44,60.71l-.31,1.77a3.33,3.33,0,0,0,6.55,1.15,3.33,3.33,0,1,0,6.56,1.15l.3-1.76Z" class="cls-5" transform="translate(0 0)"/><path d="M260.71,32c.11.73-.85,1.49-2.14,1.7l-.51.08c-1.29.21-2.42-.2-2.53-.92l-.21-1.46c-.11-.72.84-1.47,2.12-1.68l.53-.08c1.28-.22,2.41.2,2.52.92Z" class="cls-6" transform="translate(0 0)"/><path d="M288.94,37c-.35.64.29,1.68,1.43,2.31l.45.26c1.14.64,2.35.63,2.7,0l.7-1.29c.35-.64-.29-1.67-1.43-2.31l-.46-.26c-1.14-.64-2.34-.63-2.69,0Z" class="cls-6" transform="translate(0 0)"/><path d="M287.35,15.56A9.05,9.05,0,0,0,270,10.81a9.77,9.77,0,0,0-.53,1.91,9.41,9.41,0,0,0,4,8.84l-1.22,6.93,7.08,1.25,1.22-6.91A9.45,9.45,0,0,0,287.35,15.56Z" class="cls-6" transform="translate(0 0)"/><rect width="19.03" height="13.3" x="262.13" y="45.85" class="cls-12" transform="translate(172.78 310.9) rotate(-80)"/><polygon points="269.58 61.8 272.93 45.22 270.4 61.94 269.58 61.8" class="cls-7"/><path d="M288,32.6s-3.77-6.39-4.54-6.88a11.91,11.91,0,0,0-3.18-1.61s-1.15,3.85-4.25,3.29-2.86-4.54-2.86-4.54a12.06,12.06,0,0,0-3.55.42c-.89.2-6.63,4.92-6.63,4.92L259,29.91l1.2,2.79,4.89-1.16L269,29.17l-2.51,8.54-1,5.6h0L280.59,46h0l1-5.73.52-8.76L285,35.05l4.2,2.77,2.08-2.21Z" class="cls-13" transform="translate(0 0)"/><path d="M274.26,18.28a3.63,3.63,0,0,0,6.63,1.17Z" class="cls-9" transform="translate(0 0)"/><path d="M275.57,14.93a.71.71,0,1,1-.57-.82A.7.7,0,0,1,275.57,14.93Z" class="cls-14" transform="translate(0 0)"/><path d="M282.2,16.09a.71.71,0,0,1-.82.58.72.72,0,0,1-.58-.82.71.71,0,1,1,1.4.24Z" class="cls-14" transform="translate(0 0)"/><rect width=".46" height="1.64" x="274.91" y="12.45" class="cls-15" transform="translate(214.18 281.9) rotate(-79.97)"/><polygon points="282.54 14.81 280.93 14.52 281 14.07 282.62 14.36 282.54 14.81" class="cls-15"/><path d="M273,9.07a8.35,8.35,0,0,0-2.45,5.13,12.88,12.88,0,0,0,.53,5.64,6.92,6.92,0,0,1-2.27-5.41s.08-7.7,6.29-9.79S285.23,5.73,287,9.39a9.42,9.42,0,0,1,.17,8.24A13.14,13.14,0,0,1,284,21.84c.45-1.28,2-1.2,2.19-7.06-.82-.37-8.83,1.22-13.21-5.71" class="cls-15" transform="translate(0 0)"/><path d="M310.15,23.1a2.89,2.89,0,0,0-3.87-1.33,2.87,2.87,0,0,0-1.47,1.66,2.9,2.9,0,1,0,5.34-.33" class="cls-5" transform="translate(0 0)"/><path d="M326.51,28.75a2.9,2.9,0,1,0-3.56,4,2.9,2.9,0,0,0,2.22-.13A2.87,2.87,0,0,0,326.64,31a2.92,2.92,0,0,0-.13-2.21" class="cls-5" transform="translate(0 0)"/><path d="M294,67.7l-.62,1.68a3.33,3.33,0,0,0,6.25,2.28,3.32,3.32,0,0,0,6.25,2.27l.61-1.69Z" class="cls-5" transform="translate(0 0)"/><path d="M296.29,38.92c0,.74-1.09,1.31-2.4,1.3h-.52c-1.3,0-2.35-.62-2.32-1.35l0-1.47c0-.73,1.08-1.3,2.38-1.29H294c1.31,0,2.35.62,2.33,1.35Z" class="cls-16" transform="translate(0 0)"/><path d="M323.23,48.73c-.45.57,0,1.7,1,2.53l.41.33c1,.83,2.19,1,2.65.46l.91-1.15c.46-.57,0-1.7-1-2.52l-.41-.34c-1-.82-2.19-1-2.65-.46Z" class="cls-16" transform="translate(0 0)"/><path d="M325.37,27.38a9.05,9.05,0,0,0-16.27-7.69,9.48,9.48,0,0,0-.84,1.79,9.38,9.38,0,0,0,2.38,9.39l-6.09,12.61-3.22,8.85,9.48,3.09,3.41-9.36,3.17-12.71A9.39,9.39,0,0,0,325.37,27.38Z" class="cls-16" transform="translate(0 0)"/><polygon points="311.74 52.88 302.38 49.44 294 67.7 306.49 72.24 311.74 52.88" class="cls-17"/><polygon points="299.85 69.83 306.02 54.08 300.63 70.12 299.85 69.83" class="cls-7"/><path d="M313.6,49.82l3.14-8.46,2.94,4.81,3.65,3.45,2.44-1.81-2.67-3.52s-2.6-6.95-3.27-7.57A12.14,12.14,0,0,0,317,34.58s-1.1,4-4.76,2.51a3.59,3.59,0,0,1-2-5,12.15,12.15,0,0,0-3.58-.2c-.91.05-7.37,3.69-7.37,3.69l-4.3,1,.7,3,5-.29,5.25-1.66-3,8.4" class="cls-18" transform="translate(0 0)"/><path d="M312,27.79a3.62,3.62,0,0,0,6.32,2.3Z" class="cls-9" transform="translate(0 0)"/><path d="M313.89,24.71a.71.71,0,0,1-.91.43.71.71,0,1,1,.49-1.33A.69.69,0,0,1,313.89,24.71Z" class="cls-5" transform="translate(0 0)"/><path d="M320.21,27a.7.7,0,0,1-.91.42.71.71,0,0,1-.42-.9.72.72,0,0,1,.91-.43A.71.71,0,0,1,320.21,27Z" class="cls-5" transform="translate(0 0)"/><rect width=".46" height="1.64" x="313.53" y="22.19" class="cls-5" transform="translate(184.89 310) rotate(-70.01)"/><polygon points="320.77 25.8 319.23 25.25 319.38 24.81 320.93 25.38 320.77 25.8" class="cls-5"/><path d="M328.08,24.67a3.41,3.41,0,0,0,.47-.64,3.68,3.68,0,0,0-1.31-5,3.53,3.53,0,0,0-1.53-.46,3.84,3.84,0,0,0,.14-.91,3.69,3.69,0,0,0-3.59-3.72,3.62,3.62,0,0,0-1.95.54,4.11,4.11,0,0,0-.46-.88,3.68,3.68,0,0,0-5.11-.79,3.52,3.52,0,0,0-1.09,1.31,3.61,3.61,0,0,0-.56-.27,3.64,3.64,0,0,0-4.84,3.39A2.86,2.86,0,1,0,311.06,21a2.77,2.77,0,0,0,.12-1.3l.23.11a2.9,2.9,0,0,0,3.6-1.66,2.45,2.45,0,0,0,1.3,1.06,2.52,2.52,0,0,0,1.65,0,2.83,2.83,0,0,0,4,2.54l0,0a2.9,2.9,0,0,0,1.78,3.65,2.7,2.7,0,0,0,1.05.14c0,.06-.06.11-.08.17a2.25,2.25,0,1,0,3.44-1.08Z" class="cls-5" transform="translate(0 0)"/><path d="M322.87,79.88l-.9,1.55a3.33,3.33,0,0,0,5.76,3.33,3.33,3.33,0,0,0,5.77,3.32l.89-1.55Z" class="cls-5" transform="translate(0 0)"/><path d="M330.13,51.94c-.15.72-1.31,1.1-2.59.86l-.51-.09c-1.28-.25-2.21-1-2.06-1.74l.3-1.44c.14-.72,1.29-1.1,2.57-.86l.52.11c1.28.23,2.21,1,2.06,1.73Z" class="cls-19" transform="translate(0 0)"/><path d="M355,66.28c-.54.48-.3,1.67.55,2.66l.34.4c.85,1,2,1.4,2.53.91l1.1-1c.55-.48.3-1.67-.54-2.66l-.35-.4c-.85-1-2-1.4-2.53-.92Z" class="cls-19" transform="translate(0 0)"/><path d="M360.77,45.63a9.05,9.05,0,0,0-14.68-10.41,8.86,8.86,0,0,0-.43,11.29l-3.52,6.09,6.23,3.6,3.51-6.08A9.41,9.41,0,0,0,360.77,45.63Z" class="cls-19" transform="translate(0 0)"/><rect width="19.03" height="13.3" x="323.87" y="68.31" class="cls-13" transform="translate(101.77 326.2) rotate(-60)"/><polygon points="328.27 83 337.08 68.56 328.99 83.42 328.27 83" class="cls-7"/><path d="M355.6,61.88s-1.36-7.29-1.91-8a12.21,12.21,0,0,0-2.45-2.61l-5.11,1.65L345,47.65a12,12,0,0,0-3.48-.82c-.91-.11-7.9,2.36-7.9,2.36l-4.41.21.17,3,5,.59,4.47-.9-5.29,7.16-2.85,4.92,0,0L344,71.9l0,0,2.91-5,3.49-8,1.46,4.31,3,4,2.72-1.35Z" class="cls-20" transform="translate(0 0)"/><path d="M347.54,43.71a3.36,3.36,0,0,0,1.78,3.65,3.32,3.32,0,0,0,4.05-.29Z" class="cls-9" transform="translate(0 0)"/><path d="M349.93,41a.71.71,0,0,1-1,.25.7.7,0,0,1-.26-1,.71.71,0,0,1,1-.25A.72.72,0,0,1,349.93,41Z" class="cls-2" transform="translate(0 0)"/><path d="M355.76,44.36a.71.71,0,0,1-1,.26.7.7,0,0,1-.26-1,.71.71,0,0,1,1.24.7Z" class="cls-2" transform="translate(0 0)"/><rect width=".46" height="1.64" x="349.86" y="38.48" class="cls-12" transform="translate(140.92 322.77) rotate(-59.98)"/><polygon points="356.51 43.27 355.1 42.46 355.32 42.06 356.75 42.88 356.51 43.27" class="cls-12"/><path d="M344,38.59l.36.22c.11-.2,2.57-3.87,4.89-4.29,1.64,3.24,7.45,7.15,11.74,7.44a29.86,29.86,0,0,1-2.07,5.85l.44.27a10.63,10.63,0,0,0,3-6.66c.39-3.79-2.54-8.79-8.94-9.58s-9.22,6.39-9.22,6.39-.11.24-.16.36" class="cls-13" transform="translate(0 0)"/><polygon points="384.17 80.06 369.44 68.07 378.76 57.33 393.23 69.26 384.17 80.06" class="cls-11"/><path d="M349.19,96.9,348,98.27a3.32,3.32,0,0,0,5.09,4.27,3.33,3.33,0,1,0,5.1,4.27l1.15-1.37Z" class="cls-5" transform="translate(0 0)"/><path d="M361.19,70.64c-.27.68-1.48.86-2.7.4l-.48-.18c-1.23-.47-2-1.39-1.73-2.07l.54-1.37c.27-.68,1.47-.85,2.69-.4l.49.2c1.22.45,2,1.38,1.72,2.06Z" class="cls-19" transform="translate(0 0)"/><path d="M383.15,89.07c-.63.38-.59,1.6.08,2.72l.26.45c.67,1.12,1.71,1.72,2.34,1.34l1.25-.77c.62-.38.59-1.6-.08-2.71l-.27-.46c-.66-1.12-1.71-1.72-2.34-1.34Z" class="cls-19" transform="translate(0 0)"/><path d="M392.46,69.74A9,9,0,0,0,379.81,57a8.81,8.81,0,0,0-1.41,1.39,9.39,9.39,0,0,0-1,9.65l-4.53,5.39L378.41,78l4.51-5.38A9.4,9.4,0,0,0,392.46,69.74Z" class="cls-19" transform="translate(0 0)"/><path d="M384.55,84.85s-.07-7.42-.49-8.23a12.08,12.08,0,0,0-2-3s-2.43,3-5.32.73-.21-5.37-.21-5.37a12,12,0,0,0-3.28-1.41c-.88-.27-8.2,1-8.2,1L360.71,68l-.35,3,4.82,1.44,4.55-.11-6.45,6.14L348.43,96.26v0l11.77,9.86,0,0,14.93-17.89L380,81l.69,4.5,2.25,4.49,2.91-.86Z" class="cls-21" transform="translate(0 0)"/><path d="M379.77,65.55a3.63,3.63,0,0,0,5.16,4.33Z" class="cls-9" transform="translate(0 0)"/><path d="M382.59,63.31a.71.71,0,0,1-1.09-.92.72.72,0,0,1,1-.08A.71.71,0,0,1,382.59,63.31Z" class="cls-2" transform="translate(0 0)"/><path d="M387.74,67.63a.71.71,0,0,1-1.09-.91.71.71,0,1,1,1.09.91Z" class="cls-2" transform="translate(0 0)"/><polygon points="383.52 62.36 382.27 61.31 382.56 60.96 383.82 62.01 383.52 62.36" class="cls-16"/><polygon points="388.68 66.68 387.42 65.63 387.71 65.28 388.98 66.34 388.68 66.68" class="cls-16"/><path d="M393.85,64.58a11.26,11.26,0,0,1-2.52,5.6c-2.25,2.68-5.75,6.15-5.75,6.15l2.73-1.23s4.27-4.64,5.1-5.7c1.56-2,3.65-5.44,1.84-9.51-2.38-5.36-7.84-7.32-11.86-6a10.17,10.17,0,0,0-4.63,3.33,13.52,13.52,0,0,0-2,2.94,13.57,13.57,0,0,0-.88,5.41c-.18-1.78-1.12-4.23,4.55-8.82.27,1.85,4.2,6,13.38,7.86" class="cls-11" transform="translate(0 0)"/><path d="M409.44,83.45a10.73,10.73,0,0,0-2.22,1.37l-6.75,5.62,11.85,14.49,7-5.28a10.3,10.3,0,0,0,1.81-1.87Z" class="cls-5" transform="translate(0 0)"/><path d="M372.15,118.22l-1.37,1.15a3.33,3.33,0,1,0,4.28,5.09,3.33,3.33,0,1,0,4.28,5.1l1.36-1.16Z" class="cls-5" transform="translate(0 0)"/><path d="M388.53,94.44c-.38.63-1.6.6-2.72-.07l-.45-.26c-1.12-.67-1.73-1.72-1.34-2.34l.77-1.25c.38-.63,1.59-.59,2.71.07l.45.28c1.13.66,1.73,1.7,1.34,2.33Z" class="cls-16" transform="translate(0 0)"/><path d="M407,116.41c-.67.27-.85,1.47-.39,2.69l.18.49c.47,1.22,1.39,2,2.07,1.72l1.37-.53c.68-.27.85-1.48.39-2.69l-.19-.5c-.45-1.22-1.38-2-2.06-1.72Z" class="cls-16" transform="translate(0 0)"/><path d="M419.49,99a9.05,9.05,0,0,0-10.24-14.8A8.89,8.89,0,0,0,405,94.65l-5.39,4.53,4.62,5.5,5.38-4.51A9.41,9.41,0,0,0,419.49,99Z" class="cls-16" transform="translate(0 0)"/><rect width="19.03" height="13.3" x="374.2" y="110.54" class="cls-17" transform="translate(14.45 274.09) rotate(-40)"/><polygon points="376.16 122.99 389.38 112.44 376.69 123.63 376.16 122.99" class="cls-7"/><path d="M409.07,112.5s1.22-7.32.94-8.2a12.16,12.16,0,0,0-1.4-3.28s-2.77,2.85-5.37-.2.73-5.32.73-5.32a11.81,11.81,0,0,0-3-2c-.82-.42-8.24-.49-8.24-.49l-4.22-1.31-.87,2.92,4.49,2.25,4.51.69-7.42,4.92-4.36,3.65v0L394.76,118v0l4.46-3.74,6-6.38-.11,4.56,1.44,4.81,3-.34Z" class="cls-8" transform="translate(0 0)"/><path d="M407.71,92.67A3.62,3.62,0,0,0,412,97.82Z" class="cls-9" transform="translate(0 0)"/><path d="M410.88,90.94a.71.71,0,0,1-1-.09.7.7,0,0,1,.09-1,.71.71,0,0,1,1,.09A.72.72,0,0,1,410.88,90.94Z" class="cls-5" transform="translate(0 0)"/><path d="M415.2,96.09a.7.7,0,0,1-1-.09.71.71,0,1,1,1,.09Z" class="cls-5" transform="translate(0 0)"/><polygon points="411.96 90.17 410.91 88.92 411.26 88.62 412.32 89.88 411.96 90.17" class="cls-5"/><polygon points="416.29 95.33 415.24 94.07 415.58 93.77 416.64 95.03 416.29 95.33" class="cls-5"/><path d="M428.22,82.79a4.15,4.15,0,0,0-8.18-1,10.62,10.62,0,0,0-13.32,1.56s8.81,9.29,13.58,8.23c0,0-3.44,4.52-.61,9.16,0,0,8.11-4.41,4.84-13.14-.09-.24-.2-.44-.3-.67A4.15,4.15,0,0,0,428.22,82.79Z" class="cls-5" transform="translate(0 0)"/><path d="M391.07,143.21l-1.55.89a3.32,3.32,0,1,0,3.32,5.76,3.33,3.33,0,1,0,3.33,5.76l1.55-.9Z" class="cls-5" transform="translate(0 0)"/><path d="M411.32,122.64c-.48.55-1.68.3-2.67-.55l-.39-.34c-1-.85-1.4-2-.91-2.53l1-1.1c.48-.55,1.67-.3,2.66.55l.4.35c1,.84,1.4,2,.91,2.52Z" class="cls-22" transform="translate(0 0)"/><path d="M425.65,147.47c-.71.15-1.1,1.3-.85,2.58l.09.51c.25,1.29,1,2.2,1.74,2.06l1.44-.29c.71-.15,1.1-1.3.86-2.58l-.1-.52c-.24-1.28-1-2.2-1.74-2.06Z" class="cls-22" transform="translate(0 0)"/><path d="M441,132.49A9.05,9.05,0,1,0,431.7,117a9.41,9.41,0,0,0-4.21,8.73l-6.09,3.52,3.59,6.22,6.08-3.5A9.41,9.41,0,0,0,441,132.49Z" class="cls-22" transform="translate(0 0)"/><rect width="19.03" height="13.3" x="393.12" y="137.56" class="cls-14" transform="translate(-18.16 220.65) rotate(-30)"/><polygon points="394.19 148.6 409.04 140.51 394.6 149.33 394.19 148.6" class="cls-7"/><path d="M428.42,144s2.47-7,2.35-7.9a12,12,0,0,0-.82-3.48l-5.25-1.13,1.64-5.11a11.73,11.73,0,0,0-2.6-2.46c-.73-.55-8-1.91-8-1.91l-3.92-2-1.37,2.71,4,3,4.32,1.45-8.16,3.56-4.92,2.84v0l7.68,13.29,0,0,5-2.91,7.05-5.23-.89,4.46.58,5,3,.18Z" class="cls-23" transform="translate(0 0)"/><path d="M433.18,123.4a.72.72,0,0,1-1-.27.71.71,0,0,1,.26-1,.71.71,0,0,1,.71,1.24Z" class="cls-9" transform="translate(0 0)"/><path d="M436.54,129.22a.71.71,0,0,1-1-.26.73.73,0,0,1,.26-1,.71.71,0,0,1,.71,1.23Z" class="cls-9" transform="translate(0 0)"/><rect width=".46" height="1.64" x="433.94" y="121.18" class="cls-5" transform="translate(-2.89 233.21) rotate(-29.97)"/><polygon points="437.75 128.65 436.93 127.23 437.32 127 438.15 128.43 437.75 128.65" class="cls-5"/><path d="M427.7,129.4c-1.25-2.27-2.11-8.57,2-10.81.75-.41,1.95-.91,1.95-.91a6.93,6.93,0,0,0-2.18,3c-1.54,3.88,2,3.78,3.13,6,1.31,2.18-.67,5.11,3.43,5.89a6,6,0,0,0,3.7-.39,7.79,7.79,0,0,1-1.81,1.31c-4.08,2.24-8.93-1.86-10.18-4.14" class="cls-15" transform="translate(0 0)"/><path d="M429.14,124.6a3.38,3.38,0,0,0-.29,4.06,3.33,3.33,0,0,0,3.66,1.77Z" class="cls-9" transform="translate(0 0)"/><path d="M452.52,151.18a9.88,9.88,0,0,0-2.42.52l-12.74,4.69,6,18.52L456,170.25a16.09,16.09,0,0,0,2.72-1.69Z" class="cls-24" transform="translate(0 0)"/><path d="M405.35,171.1l-1.68.61A3.33,3.33,0,0,0,406,178a3.33,3.33,0,1,0,2.28,6.25l1.68-.61Z" class="cls-5" transform="translate(0 0)"/><path d="M428.87,154.36c-.57.46-1.7,0-2.53-1L426,153c-.82-1-1-2.2-.46-2.65l1.15-.92c.57-.46,1.7,0,2.53,1l.33.41c.83,1,1,2.2.46,2.65Z" class="cls-6" transform="translate(0 0)"/><path d="M438.68,181.3c-.73,0-1.31,1.09-1.29,2.39v.53c0,1.3.63,2.34,1.35,2.32l1.47,0c.73,0,1.31-1.09,1.29-2.39v-.53c0-1.3-.62-2.35-1.35-2.33Z" class="cls-6" transform="translate(0 0)"/><path d="M456.41,169.22a9.05,9.05,0,0,0-4.56-17.41,9.57,9.57,0,0,0-1.92.51,9.4,9.4,0,0,0-5.67,7.86l-6.61,2.41,2.46,6.75,6.6-2.39A9.41,9.41,0,0,0,456.41,169.22Z" class="cls-6" transform="translate(0 0)"/><rect width="19.03" height="13.3" x="407.06" y="167.44" class="cls-12" transform="translate(-34.42 153) rotate(-20)"/><polygon points="407.49 176.96 423.52 171.56 407.77 177.74 407.49 176.96" class="cls-7"/><path d="M442,178.35s3.65-6.46,3.69-7.38a12,12,0,0,0-.2-3.56l-5-2,2.5-4.75a11.67,11.67,0,0,0-2.14-2.87c-.62-.67-7.57-3.27-7.57-3.27l-3.52-2.67L428,154.26l3.45,3.66,4,2.18-8.66,2.09-9.57,3.39v0l-.37,16.52v0l15.33-5.53,7.85-3.93-1.66,4.25-.29,5,3,.71Z" class="cls-11" transform="translate(0 0)"/><path d="M447.51,159.25a3.63,3.63,0,0,0,2.3,6.33Z" class="cls-9" transform="translate(0 0)"/><path d="M451.07,158.71a.71.71,0,1,1,.43-.91A.72.72,0,0,1,451.07,158.71Z" class="cls-2" transform="translate(0 0)"/><path d="M453.38,165a.71.71,0,1,1-.49-1.33.71.71,0,0,1,.91.42A.72.72,0,0,1,453.38,165Z" class="cls-2" transform="translate(0 0)"/><rect width=".46" height="1.64" x="452.06" y="156.69" class="cls-12" transform="translate(-26.6 164.22) rotate(-20)"/><polygon points="454.66 164.68 454.1 163.14 454.53 162.98 455.09 164.53 454.66 164.68" class="cls-12"/><path d="M454,170.69c8.73-2.13,9.77-9.35,8.28-13.42s-6.59-9-15.3-4.27l7.79,1.3Z" class="cls-13" transform="translate(0 0)"/><path d="M414.58,201.05l-1.76.31a3.33,3.33,0,1,0,1.15,6.55,3.33,3.33,0,1,0,1.16,6.55l1.76-.31Z" class="cls-5" transform="translate(0 0)"/><path d="M440.65,188.65c-.64.35-1.68-.29-2.32-1.43l-.25-.45c-.64-1.14-.64-2.35,0-2.69l1.29-.7c.65-.35,1.68.29,2.32,1.42l.25.46c.64,1.14.64,2.34,0,2.69Z" class="cls-19" transform="translate(0 0)"/><path d="M445.62,216.89c-.72-.11-1.47.84-1.68,2.13l-.09.51c-.21,1.29.21,2.42.93,2.53l1.45.22c.72.11,1.48-.85,1.69-2.13l.08-.53c.21-1.28-.2-2.42-.93-2.52Z" class="cls-19" transform="translate(0 0)"/><path d="M465.19,208.07a9.06,9.06,0,0,0-1.47-17.94,9.56,9.56,0,0,0-2,.16,9.41,9.41,0,0,0-6.95,6.76l-6.92,1.23,1.25,7.08,6.9-1.22A9.43,9.43,0,0,0,465.19,208.07Z" class="cls-19" transform="translate(0 0)"/><rect width="19.03" height="13.3" x="415.59" y="199.3" class="cls-25" transform="translate(-29.31 76.96) rotate(-10)"/><polygon points="415.67 207.19 432.39 204.66 415.81 208.01 415.67 207.19" class="cls-7"/><path d="M449.41,214.55s4.72-5.73,4.92-6.62a12.06,12.06,0,0,0,.42-3.55l-4.55-2.86,3.29-4.24a12,12,0,0,0-1.61-3.2c-.49-.76-6.88-4.54-6.88-4.54l-3-3.23-2.21,2.08,2.76,4.2,3.56,2.85-8.89.55-5.6,1v0l2.67,15.12v0l5.73-1,8.42-2.5-2.37,3.89-1.16,4.89,2.78,1.21Z" class="cls-3" transform="translate(0 0)"/><path d="M458.15,196.7a3.63,3.63,0,0,0,1.17,6.63Z" class="cls-9" transform="translate(0 0)"/><path d="M461.76,196.79a.71.71,0,0,1-.25-1.4.71.71,0,0,1,.25,1.4Z" class="cls-18" transform="translate(0 0)"/><path d="M462.93,203.41a.71.71,0,1,1,.57-.82A.7.7,0,0,1,462.93,203.41Z" class="cls-18" transform="translate(0 0)"/><rect width=".46" height="1.64" x="462.93" y="195" class="cls-11" transform="translate(-26.88 83.03) rotate(-9.96)"/><polygon points="464.25 203.29 463.97 201.68 464.42 201.59 464.7 203.22 464.25 203.29" class="cls-11"/><path d="M474.45,205.54a17.23,17.23,0,0,1-.36-4.12,29,29,0,0,0-.28-4.25c-.89-4.91-4.12-7.73-8.86-7.73a12.83,12.83,0,0,0-2.19.2,8,8,0,0,0-2.08.7l-.58.26.25,1.33.56-.22a8,8,0,0,1,2.69-.46,5.84,5.84,0,0,1,3.25.91,5.32,5.32,0,0,1-.12.9,8.72,8.72,0,0,0,0,3.77,14.47,14.47,0,0,0,2.7,6.72c-1.69,2.42-5.87,3.26-5.91,3.27l-.49.09.22,1.22.63,0c.38,0,.68,0,1,0a6.48,6.48,0,0,0,1.21-.11,16.48,16.48,0,0,0,3.2-1.07c1.69-.69,3.32-1.29,4.51-.86l1,.36Z" class="cls-11" transform="translate(0 0)"/><polygon points="460.92 248.64 460.92 228.95 467.75 229.25 468.53 248.36 460.92 248.64" class="cls-10"/><path d="M418.47,232.15h-1.79a3.33,3.33,0,1,0,0,6.65,3.33,3.33,0,1,0,0,6.65h1.79Z" class="cls-5" transform="translate(0 0)"/><path d="M446.29,224.46c-.69.24-1.6-.58-2-1.8l-.18-.5c-.42-1.23-.22-2.42.48-2.64l1.39-.47c.7-.24,1.6.57,2,1.8l.17.5c.44,1.23.23,2.42-.47,2.65Z" class="cls-6" transform="translate(0 0)"/><path d="M446.29,253.13c-.69-.23-1.6.57-2,1.81l-.18.49c-.42,1.23-.21,2.42.48,2.65l1.39.47c.69.23,1.6-.58,2-1.81l.18-.5c.43-1.23.21-2.41-.48-2.65Z" class="cls-6" transform="translate(0 0)"/><path d="M467.09,247.85a9.06,9.06,0,1,0-.31-18.11,9.41,9.41,0,0,0-8,5.46h-7v7.18h7A9.42,9.42,0,0,0,467.09,247.85Z" class="cls-6" transform="translate(0 0)"/><rect width="19.03" height="13.3" x="418.47" y="232.15" class="cls-12"/><polygon points="418.47 238.38 435.37 238.79 418.47 239.21 418.47 238.38" class="cls-7"/><path d="M450.42,251.49s5.64-4.82,6-5.67a12,12,0,0,0,1-3.41l-4-3.61,4-3.61a11.6,11.6,0,0,0-1-3.42c-.35-.85-6-5.67-6-5.67L448,222.39l-2.54,1.67,2,4.62,3,3.42-8.85-1H436V246.5h5.82l8.72-1-3,3.42-2,4.61,2.53,1.68Z" class="cls-21" transform="translate(0 0)"/><path d="M462.13,235.43a3.62,3.62,0,0,0,0,6.73Z" class="cls-9" transform="translate(0 0)"/><path d="M465.67,236.14a.71.71,0,1,1,.7-.71A.7.7,0,0,1,465.67,236.14Z" class="cls-5" transform="translate(0 0)"/><path d="M465.67,242.87a.71.71,0,1,1,.71-.71A.72.72,0,0,1,465.67,242.87Z" class="cls-5" transform="translate(0 0)"/><polygon points="466.99 236.25 466.99 234.61 467.45 234.61 467.45 236.25 466.99 236.25" class="cls-10"/><polygon points="466.99 242.98 466.99 241.34 467.45 241.34 467.45 242.98 466.99 242.98" class="cls-10"/><path d="M471.87,232.88a8.46,8.46,0,0,0-5.35-1.93A13,13,0,0,0,461,232a6.92,6.92,0,0,1,5.16-2.79s7.67-.68,10.37,5.29-.08,10.21-3.55,12.34a9.4,9.4,0,0,1-8.18,1,17.55,17.55,0,0,1-3.33-1.14c1.32.33.21.27,6.07-.12.28-.86-2.08-8.67,4.38-13.72" class="cls-10" transform="translate(0 0)"/><path d="M416.89,263.45l-1.76-.32a3.33,3.33,0,0,0-1.15,6.55,3.33,3.33,0,0,0-1.16,6.56l1.77.3Z" class="cls-5" transform="translate(0 0)"/><path d="M445.63,260.71c-.72.11-1.48-.85-1.69-2.13l-.09-.52c-.2-1.29.21-2.42.93-2.52l1.46-.22c.72-.11,1.47.84,1.68,2.13l.08.52c.22,1.29-.2,2.42-.92,2.52Z" class="cls-6" transform="translate(0 0)"/><path d="M440.65,289c-.64-.35-1.68.28-2.31,1.42l-.26.46c-.64,1.13-.63,2.34,0,2.69l1.28.7c.65.35,1.68-.29,2.32-1.43l.26-.46c.63-1.13.63-2.34,0-2.69Z" class="cls-6" transform="translate(0 0)"/><path d="M462.05,287.35a9.05,9.05,0,1,0,2.84-17.88,9.37,9.37,0,0,0-8.84,4l-13.85-4.69L434,267.43l-1.81,11,8.48,1.38,14.12.68A9.42,9.42,0,0,0,462.05,287.35Z" class="cls-6" transform="translate(0 0)"/><polygon points="433.53 278.69 435.47 267.67 416.89 263.45 414.59 276.55 433.53 278.69" class="cls-26"/><polygon points="415.81 269.59 432.39 272.93 415.67 270.4 415.81 269.59" class="cls-7"/><path d="M437.6,279.85l8.51,2.31L442.55,285l-2.76,4.2,2.21,2.09,3-3.24s6.39-3.77,6.88-4.54a12,12,0,0,0,1.61-3.19s-3.71-1.17-3.3-4.25,4.55-2.86,4.55-2.86a12.1,12.1,0,0,0-.42-3.55c-.2-.89-4.92-6.62-4.92-6.62L447.7,259l-2.79,1.21,1.15,4.89,2.38,3.89-8.79-1Z" class="cls-23" transform="translate(0 0)"/><path d="M459.33,274.26a3.63,3.63,0,0,0-1.17,6.63Z" class="cls-9" transform="translate(0 0)"/><path d="M462.68,275.58a.71.71,0,0,1-.57-.82.7.7,0,0,1,.82-.58.71.71,0,0,1-.25,1.4Z" class="cls-18" transform="translate(0 0)"/><path d="M461.52,282.2a.71.71,0,0,1-.58-.82.71.71,0,1,1,.58.82Z" class="cls-18" transform="translate(0 0)"/><polygon points="463.97 275.91 464.25 274.3 464.7 274.38 464.42 276 463.97 275.91" class="cls-5"/><polygon points="462.8 282.54 463.08 280.93 463.54 281 463.25 282.63 462.8 282.54" class="cls-5"/><path d="M468.83,273.38a8.4,8.4,0,0,0-4.93-2.85,12.79,12.79,0,0,0-5.66.08,6.88,6.88,0,0,1,5.57-1.83s7.67.7,9.26,7.06-1.91,10-5.7,11.51a9.4,9.4,0,0,1-8.23-.51,13.07,13.07,0,0,1-3.93-3.5c1.24.56,1,2.1,6.86,2.76.43-.79-.5-8.9,6.76-12.72" class="cls-27" transform="translate(0 0)"/><path d="M455,310.06a2.9,2.9,0,0,0,1.15-3.93,2.9,2.9,0,1,0-5.08,2.78,2.9,2.9,0,0,0,3.93,1.15" class="cls-5" transform="translate(0 0)"/><path d="M450.15,326.67a2.9,2.9,0,0,0,1.15-3.94,2.9,2.9,0,0,0-3.93-1.15,2.86,2.86,0,0,0-1.39,1.73,2.9,2.9,0,0,0,4.17,3.36" class="cls-5" transform="translate(0 0)"/><path d="M409.91,294l-1.68-.62a3.33,3.33,0,0,0-2.28,6.25,3.33,3.33,0,0,0-2.27,6.26l1.68.61Z" class="cls-5" transform="translate(0 0)"/><path d="M438.69,296.29c-.74,0-1.32-1.09-1.3-2.39v-.52c0-1.31.62-2.35,1.35-2.33l1.47,0c.73,0,1.3,1.09,1.29,2.39V294c0,1.3-.62,2.34-1.35,2.32Z" class="cls-6" transform="translate(0 0)"/><path d="M428.87,323.23c-.57-.45-1.69,0-2.52,1l-.33.4c-.83,1-1,2.2-.46,2.65l1.15.91c.57.46,1.7,0,2.52-1l.34-.41c.82-1,1-2.19.45-2.65Z" class="cls-6" transform="translate(0 0)"/><path d="M450.23,325.38a9.05,9.05,0,0,0,7.69-16.27,8.86,8.86,0,0,0-11.19,1.53l-6.61-2.4L437.66,315l6.6,2.41A9.41,9.41,0,0,0,450.23,325.38Z" class="cls-6" transform="translate(0 0)"/><rect width="13.3" height="19.03" x="409.93" y="293.99" class="cls-3" transform="translate(-11.07 591.2) rotate(-70.01)"/><polygon points="407.78 299.86 423.52 306.03 407.49 300.64 407.78 299.86" class="cls-7"/><path d="M433.32,323.11s6.95-2.61,7.57-3.28A12.14,12.14,0,0,0,443,317l-2.51-4.75,5-2a11.47,11.47,0,0,0,.2-3.57c0-.92-3.68-7.38-3.68-7.38l-1-4.3-2.95.7.28,5L440,304.9l-8-4L426.7,299v0l-5.25,14.43v0l5.46,2,8.55,2.05-4,2.18L428,323.34l1.81,2.44Z" class="cls-28" transform="translate(0 0)"/><path d="M449.82,312a3.62,3.62,0,0,0-2.3,6.32Z" class="cls-9" transform="translate(0 0)"/><path d="M452.89,313.89a.71.71,0,1,1,.91-.42A.7.7,0,0,1,452.89,313.89Z" class="cls-5" transform="translate(0 0)"/><path d="M450.6,320.22a.71.71,0,0,1,.48-1.34.71.71,0,0,1-.48,1.34Z" class="cls-5" transform="translate(0 0)"/><rect width="1.64" height=".46" x="453.78" y="313.53" class="cls-5" transform="translate(4.2 633.52) rotate(-69.99)"/><polygon points="451.8 320.77 452.36 319.24 452.8 319.39 452.23 320.93 451.8 320.77" class="cls-5"/><path d="M454.3,328a3.75,3.75,0,0,0,.65.45,3.71,3.71,0,0,0,4.94-1.55,3.5,3.5,0,0,0,.39-1.56,3.48,3.48,0,0,0,.91.1,3.69,3.69,0,0,0,3.55-3.76,3.55,3.55,0,0,0-.64-1.92,3.39,3.39,0,0,0,.86-.5,3.68,3.68,0,0,0,.55-5.15,3.47,3.47,0,0,0-1.36-1,3.14,3.14,0,0,0,.24-.57,3.69,3.69,0,0,0-2.48-4.54,3.39,3.39,0,0,0-1.13-.13,2.86,2.86,0,1,0-3.65,3,2.74,2.74,0,0,0,1.3.06c0,.08-.07.15-.1.24a2.91,2.91,0,0,0,1.83,3.51,2.43,2.43,0,0,0-.9,3,2.92,2.92,0,0,0-2.53,2,2.89,2.89,0,0,0,.18,2l0,0a2.9,2.9,0,0,0-3.55,1.95,2.75,2.75,0,0,0-.09,1.06l-.18-.07A2.26,2.26,0,1,0,454.3,328Z" class="cls-5" transform="translate(0 0)"/><path d="M397.73,322.87l-1.55-.9a3.33,3.33,0,1,0-3.33,5.76,3.33,3.33,0,0,0-3.32,5.77l1.55.89Z" class="cls-5" transform="translate(0 0)"/><path d="M425.67,330.13c-.72-.14-1.11-1.3-.87-2.58l.1-.51c.25-1.29,1-2.21,1.74-2.06l1.44.29c.72.14,1.09,1.3.85,2.58l-.1.52c-.23,1.28-1,2.2-1.73,2.05Z" class="cls-6" transform="translate(0 0)"/><path d="M411.33,355c-.49-.54-1.67-.3-2.66.56l-.4.34c-1,.85-1.4,2-.92,2.53l1,1.1c.48.54,1.67.3,2.66-.55l.4-.35c1-.85,1.4-2,.91-2.53Z" class="cls-6" transform="translate(0 0)"/><path d="M432,360.78a9.05,9.05,0,0,0,10.4-14.69,9,9,0,0,0-1.61-1.14,9.38,9.38,0,0,0-9.67.71L425,342.14l-3.6,6.23,6.08,3.51A9.42,9.42,0,0,0,432,360.78Z" class="cls-6" transform="translate(0 0)"/><rect width="13.3" height="19.03" x="395.99" y="323.87" class="cls-12" transform="translate(-87.38 515.44) rotate(-60.01)"/><polygon points="394.61 328.27 409.04 337.08 394.19 328.99 394.61 328.27" class="cls-7"/><path d="M415.73,355.6s7.29-1.35,8-1.91a11.89,11.89,0,0,0,2.6-2.44l-1.64-5.12L430,345a12.19,12.19,0,0,0,.82-3.49c.11-.9-2.36-7.9-2.36-7.9l-.22-4.41-3,.18-.59,5,.9,4.47-7.16-5.29-4.92-2.85,0,0L405.71,344l0,0,5,2.91,8,3.5-4.31,1.45-4,3,1.35,2.72Z" class="cls-29" transform="translate(0 0)"/><path d="M433.9,347.55a3.62,3.62,0,0,0-3.37,5.83Z" class="cls-9" transform="translate(0 0)"/><path d="M436.6,349.93a.71.71,0,0,1-.25-1,.71.71,0,1,1,.25,1Z" class="cls-2" transform="translate(0 0)"/><path d="M433.24,355.76a.71.71,0,1,1,1-.26A.72.72,0,0,1,433.24,355.76Z" class="cls-2" transform="translate(0 0)"/><rect width="1.64" height=".46" x="437.49" y="349.86" class="cls-10" transform="translate(-84.09 554.5) rotate(-59.99)"/><polygon points="434.33 356.52 435.15 355.1 435.55 355.32 434.73 356.75 434.33 356.52" class="cls-10"/><path d="M446.68,354.83a4.45,4.45,0,0,0-.81.08,12.74,12.74,0,0,0,.26-1.42c.81-6.82-6.66-9.82-6.66-9.82l-.38-.17-.24.39c.22.11,4,2.73,4.49,5.2-3.39,1.75-7.46,7.93-7.76,12.51a30.34,30.34,0,0,1-6.11-2.21l-.28.47a11,11,0,0,0,6.94,3.15,8.65,8.65,0,0,0,6.69-2.52,4.15,4.15,0,1,0,3.86-5.66Z" class="cls-30" transform="translate(0 0)"/><polygon points="396.52 384.13 408.69 368.95 419.68 378.47 407.6 393.35 396.52 384.13" class="cls-31"/><path d="M380.71,349.19,379.34,348a3.32,3.32,0,1,0-4.27,5.09,3.33,3.33,0,0,0-4.28,5.1l1.38,1.15Z" class="cls-5" transform="translate(0 0)"/><path d="M407,361.19c-.68-.27-.86-1.48-.4-2.69l.19-.49c.46-1.22,1.38-2,2.06-1.72l1.37.53c.68.27.85,1.47.39,2.69l-.19.49c-.45,1.22-1.38,2-2.06,1.73Z" class="cls-19" transform="translate(0 0)"/><path d="M388.54,383.15c-.38-.62-1.6-.59-2.72.08l-.45.27c-1.12.66-1.72,1.71-1.34,2.33l.77,1.25c.38.62,1.6.59,2.71-.08l.46-.27c1.12-.66,1.72-1.71,1.34-2.33Z" class="cls-19" transform="translate(0 0)"/><path d="M407.87,392.47a9.05,9.05,0,0,0,12.79-12.66,9.25,9.25,0,0,0-1.39-1.41,9.42,9.42,0,0,0-9.65-1l-5.39-4.52-4.62,5.5,5.38,4.52A9.4,9.4,0,0,0,407.87,392.47Z" class="cls-19" transform="translate(0 0)"/><rect width="13.3" height="19.03" x="377.08" y="350.89" class="cls-3" transform="translate(-139 422.78) rotate(-50.01)"/><polygon points="376.71 353.97 389.39 365.15 376.17 354.6 376.71 353.97" class="cls-7"/><path d="M392.76,384.55s7.42-.07,8.23-.49a12.05,12.05,0,0,0,3-1.95s-2.88-2.69-.73-5.33,5.36-.2,5.36-.2a11.52,11.52,0,0,0,1.41-3.29c.28-.87-.94-8.19-.94-8.19l.55-4.38-3-.35-1.44,4.81.11,4.55-6.14-6.45-4.36-3.66v0L384.9,371.4l0,0,4.46,3.73,7.32,4.84-4.5.69-4.49,2.25.86,2.92Z" class="cls-23" transform="translate(0 0)"/><path d="M412.05,379.78a3.62,3.62,0,0,0-4.32,5.15Z" class="cls-9" transform="translate(0 0)"/><path d="M414.3,382.59a.71.71,0,1,1,1-.09A.71.71,0,0,1,414.3,382.59Z" class="cls-5" transform="translate(0 0)"/><path d="M410,387.74a.71.71,0,1,1,.91-1.08.71.71,0,0,1,.09,1A.7.7,0,0,1,410,387.74Z" class="cls-5" transform="translate(0 0)"/><rect width="1.64" height=".46" x="415.13" y="382.82" class="cls-5" transform="translate(-144.81 455.74) rotate(-50.03)"/><polygon points="410.92 388.68 411.98 387.43 412.33 387.72 411.27 388.98 410.92 388.68" class="cls-5"/><path d="M411.58,376a16.57,16.57,0,0,1,4.2.44A6.46,6.46,0,0,0,411.58,376Z" transform="translate(0 0)"/><path d="M423.27,388.51a8.9,8.9,0,0,0,0-5.09,11.8,11.8,0,0,0-3.58-4.95,10.08,10.08,0,0,0-2.69-1.63,6.43,6.43,0,0,0-1.21-.45,14.57,14.57,0,0,1,4.61,4.12c-1.84.27-5.95,4.2-7.86,13.38a11.35,11.35,0,0,1-5.59-2.52c-2.68-2.25-6.16-5.76-6.16-5.76l1.21,2.94s4.67,4.07,5.73,4.89c2,1.56,5.44,3.66,9.51,1.85a11.26,11.26,0,0,0,1-.53,4.11,4.11,0,0,0,3.33,1.7,4.15,4.15,0,0,0,1.67-7.95Z" transform="translate(0 0)"/><path d="M393.84,408.65a10.49,10.49,0,0,0-1.41-2.28l-5.79-6.94-14.95,12.18,5.45,7.21a10.58,10.58,0,0,0,1.93,1.86Z" class="cls-5" transform="translate(0 0)"/><path d="M359.39,372.16l-1.15-1.37a3.32,3.32,0,1,0-5.09,4.27,3.33,3.33,0,1,0-5.1,4.28l1.15,1.37Z" class="cls-5" transform="translate(0 0)"/><path d="M383.16,388.53c-.62-.38-.59-1.6.08-2.72l.26-.45c.67-1.12,1.72-1.72,2.34-1.34l1.25.77c.63.38.59,1.6-.08,2.72l-.27.45c-.66,1.12-1.71,1.72-2.33,1.34Z" class="cls-16" transform="translate(0 0)"/><path d="M361.2,407c-.27-.68-1.47-.86-2.69-.4l-.49.19c-1.22.46-2,1.39-1.73,2.06l.54,1.37c.27.68,1.47.86,2.69.4l.5-.19c1.21-.46,2-1.39,1.72-2.07Z" class="cls-16" transform="translate(0 0)"/><path d="M378.61,419.49a9.05,9.05,0,0,0,14.8-10.24,9.26,9.26,0,0,0-1.12-1.63A9.4,9.4,0,0,0,383,405l-4.53-5.39-5.5,4.62,4.51,5.37A9.41,9.41,0,0,0,378.61,419.49Z" class="cls-16" transform="translate(0 0)"/><rect width="13.3" height="19.03" x="353.76" y="374.21" class="cls-18" transform="translate(-162.33 321.47) rotate(-40)"/><polygon points="354.61 376.17 365.17 389.38 353.98 376.7 354.61 376.17" class="cls-7"/><path d="M365.11,409.07s7.32,1.22,8.19.95a12.11,12.11,0,0,0,3.29-1.41s-2.25-3.22.2-5.37,5.32.73,5.32.73a11.81,11.81,0,0,0,2-3c.42-.81.49-8.23.49-8.23l1.31-4.22-2.92-.87-2.26,4.49-.68,4.5-4.92-7.42-3.65-4.36,0,0-11.75,9.87,0,0,3.74,4.45,6.38,6-4.56-.11-4.81,1.44.34,3Z" class="cls-32" transform="translate(0 0)"/><path d="M384.94,407.72a3.62,3.62,0,0,0-5.15,4.32Z" class="cls-9" transform="translate(0 0)"/><path d="M386.67,410.88a.7.7,0,0,1,.09-1,.71.71,0,0,1,1,.09.72.72,0,0,1-.09,1A.71.71,0,0,1,386.67,410.88Z" class="cls-5" transform="translate(0 0)"/><path d="M381.52,415.21a.7.7,0,0,1,.08-1,.71.71,0,1,1,.91,1.08A.7.7,0,0,1,381.52,415.21Z" class="cls-5" transform="translate(0 0)"/><rect width="1.64" height=".46" x="387.39" y="411.39" class="cls-5" transform="translate(-173.72 345.54) rotate(-39.97)"/><polygon points="382.28 416.29 383.54 415.24 383.83 415.59 382.58 416.65 382.28 416.29" class="cls-5"/><path d="M393.06,405.37s-9.28,8.81-8.23,13.58c0,0-4.52-3.44-9.16-.61,0,0,4.41,8.11,13.14,4.84s9.38-12.86,4.25-17.81" class="cls-5" transform="translate(0 0)"/><path d="M334.4,391.07l-.89-1.55a3.33,3.33,0,1,0-5.76,3.33,3.32,3.32,0,1,0-5.76,3.32l.9,1.55Z" class="cls-5" transform="translate(0 0)"/><path d="M355,411.33c-.55-.49-.3-1.68.55-2.67l.34-.4c.85-1,2-1.4,2.53-.91l1.1,1c.55.49.3,1.68-.55,2.66l-.35.4c-.84,1-2,1.4-2.52.91Z" class="cls-19" transform="translate(0 0)"/><path d="M330.14,425.66c-.15-.72-1.3-1.1-2.58-.86l-.52.1c-1.28.24-2.2,1-2.05,1.73l.29,1.44c.15.72,1.3,1.1,2.58.86l.52-.1c1.28-.24,2.2-1,2.06-1.74Z" class="cls-19" transform="translate(0 0)"/><path d="M345.11,441a9.05,9.05,0,1,0,15.53-9.31,9.4,9.4,0,0,0-8.73-4.22l-3.52-6.09L342.17,425l3.5,6.08A9.42,9.42,0,0,0,345.11,441Z" class="cls-19" transform="translate(0 0)"/><rect width="13.3" height="19.03" x="326.75" y="393.12" class="cls-11" transform="translate(-156.67 220.69) rotate(-30.01)"/><polygon points="329 394.19 337.1 409.04 328.28 394.6 329 394.19" class="cls-7"/><path d="M333.62,428.42s7,2.47,7.91,2.35A11.72,11.72,0,0,0,345,430s-2-3.57,1.13-5.26,5.11,1.65,5.11,1.65a11.73,11.73,0,0,0,2.45-2.61c.56-.73,1.92-8,1.92-8l2-3.93-2.72-1.36-3,4-1.45,4.32-3.56-8.16-2.84-4.93h0l-13.29,7.67,0,0,2.91,5,5.23,7.05-4.47-.9-5,.59-.18,3Z" class="cls-18" transform="translate(0 0)"/><path d="M353.39,430.53a3.63,3.63,0,0,0-5.83,3.36Z" class="cls-9" transform="translate(0 0)"/><path d="M354.54,433.94a.71.71,0,1,1,1,.26A.71.71,0,0,1,354.54,433.94Z" class="cls-5" transform="translate(0 0)"/><path d="M348.72,437.31a.71.71,0,0,1,.26-1,.69.69,0,0,1,1,.26.71.71,0,1,1-1.22.71Z" class="cls-5" transform="translate(0 0)"/><polygon points="355.11 435.14 356.53 434.33 356.76 434.72 355.34 435.55 355.11 435.14" class="cls-5"/><polygon points="349.28 438.51 350.7 437.69 350.93 438.09 349.51 438.91 349.28 438.51" class="cls-5"/><path d="M367.94,437a4.16,4.16,0,0,0-3.67-1.42l-7.46-17.23a2.28,2.28,0,0,0-4.2,0,2.25,2.25,0,0,0,.16,2.05l4.55,7.49a5.33,5.33,0,0,0-1.82-.46,12.86,12.86,0,0,1,3.74,4.25,8.37,8.37,0,0,1,1,5.6c-7.61-3-13.16,2.95-14,3.14-3.3-4.86-2-5.7-2.37-7a18,18,0,0,0-.33,2.39l-4-8.23a2.25,2.25,0,0,0-1.65-1.23,2.28,2.28,0,0,0-2.28,3.52l10.77,15.91a4.14,4.14,0,1,0,6.55.72c2.8.19,5.82-.9,8.3-4.39,0-.06.07-.13.12-.2a3.63,3.63,0,0,0,.33.47,4.16,4.16,0,0,0,6.31-5.41Z" transform="translate(0 0)"/><path d="M327.25,455.14a9.5,9.5,0,0,0-.44-2.44l-4.18-12.91-18.74,5.29,4.45,12.77a17.17,17.17,0,0,0,1.71,2.86Z" class="cls-24" transform="translate(0 0)"/><path d="M306.51,405.36l-.61-1.68a3.32,3.32,0,1,0-6.25,2.27,3.33,3.33,0,1,0-6.25,2.28l.61,1.68Z" class="cls-5" transform="translate(0 0)"/><path d="M323.25,428.88c-.46-.57,0-1.71,1-2.53l.4-.33c1-.83,2.2-1,2.65-.47l.92,1.15c.46.58,0,1.7-1,2.53l-.42.33c-1,.83-2.19,1-2.64.46Z" class="cls-6" transform="translate(0 0)"/><path d="M296.3,438.68c0-.73-1.08-1.31-2.39-1.29h-.52c-1.3,0-2.35.63-2.33,1.36l0,1.46c0,.73,1.09,1.31,2.39,1.29H294c1.3,0,2.35-.63,2.33-1.36Z" class="cls-6" transform="translate(0 0)"/><path d="M308.38,456.41a9.05,9.05,0,0,0,17.41-4.56,8.83,8.83,0,0,0-.5-1.91,9.36,9.36,0,0,0-7.86-5.67L315,437.66l-6.75,2.46,2.39,6.59A9.43,9.43,0,0,0,308.38,456.41Z" class="cls-6" transform="translate(0 0)"/><rect width="13.3" height="19.03" x="296.86" y="407.06" class="cls-17" transform="translate(-124.2 128.97) rotate(-20)"/><polygon points="300.65 407.49 306.04 423.52 299.87 407.77 300.65 407.49" class="cls-7"/><path d="M299.26,442s6.46,3.65,7.37,3.69a11.76,11.76,0,0,0,3.57-.2l2-5L317,443a11.62,11.62,0,0,0,2.86-2.14c.68-.62,3.28-7.57,3.28-7.57l2.67-3.51L323.35,428l-3.66,3.45-2.18,4-2.09-8.65-4.31-15.58h0l-16.26,6h0l6.19,15,3.93,7.86-4.25-1.66-5-.3-.71,3Z" class="cls-3" transform="translate(0 0)"/><path d="M318.36,447.51a3.63,3.63,0,0,0-6.33,2.3Z" class="cls-9" transform="translate(0 0)"/><path d="M318.9,451.08a.71.71,0,0,1,.42-.91.7.7,0,0,1,.91.42.71.71,0,0,1-.43.91A.7.7,0,0,1,318.9,451.08Z" class="cls-18" transform="translate(0 0)"/><path d="M312.58,453.38a.7.7,0,0,1,.42-.91.71.71,0,1,1,.48,1.33A.69.69,0,0,1,312.58,453.38Z" class="cls-18" transform="translate(0 0)"/><polygon points="319.25 452.36 320.79 451.8 320.95 452.23 319.4 452.79 319.25 452.36" class="cls-12"/><polygon points="312.93 454.66 314.46 454.1 314.62 454.53 313.08 455.09 312.93 454.66" class="cls-12"/><path d="M307.69,455.59c1.77,8.46,8.83,9.74,12.89,8.46s9.42-5.82,5.06-14.37L323.78,457Z" class="cls-13" transform="translate(0 0)"/><path d="M276.56,414.59l-.31-1.77A3.33,3.33,0,1,0,269.7,414a3.33,3.33,0,0,0-6.55,1.15l.31,1.77Z" class="cls-5" transform="translate(0 0)"/><path d="M289,440.65c-.35-.64.29-1.68,1.42-2.32l.46-.25c1.14-.64,2.34-.64,2.69,0l.7,1.3c.35.64-.29,1.67-1.42,2.31l-.47.26c-1.13.64-2.33.63-2.68,0Z" class="cls-6" transform="translate(0 0)"/><path d="M260.72,445.63c.11-.73-.84-1.48-2.13-1.69l-.51-.08c-1.29-.21-2.42.2-2.53.92l-.22,1.45c-.11.72.85,1.48,2.13,1.69l.52.09c1.29.21,2.42-.21,2.53-.93Z" class="cls-6" transform="translate(0 0)"/><path d="M269.54,465.19a9.05,9.05,0,0,0,17.94-1.47,8.8,8.8,0,0,0-.17-2,9.37,9.37,0,0,0-6.76-6.95l-1.22-6.93-7.08,1.25,1.22,6.91A9.41,9.41,0,0,0,269.54,465.19Z" class="cls-6" transform="translate(0 0)"/><rect width="13.3" height="19.03" x="265.01" y="415.6" class="cls-29" transform="translate(-69.71 53.65) rotate(-10)"/><polygon points="270.42 415.67 272.95 432.39 269.6 415.81 270.42 415.67" class="cls-7"/><path d="M263.06,449.41s5.73,4.72,6.62,4.92a12,12,0,0,0,3.54.42l2.87-4.55,4.24,3.3a12,12,0,0,0,3.19-1.61c.77-.5,4.55-6.89,4.55-6.89l3.23-3-2.09-2.21-4.2,2.76-2.84,3.56-.55-8.89-1-5.6h0l-15.11,2.67h0l1,5.73,2.5,8.42-3.89-2.37-4.89-1.16L259,447.7Z" class="cls-12" transform="translate(0 0)"/><path d="M280.91,458.16a3.63,3.63,0,0,0-6.63,1.17Z" class="cls-9" transform="translate(0 0)"/><path d="M280.82,461.76a.71.71,0,1,1,.82.57A.71.71,0,0,1,280.82,461.76Z" class="cls-5" transform="translate(0 0)"/><path d="M274.2,462.93a.7.7,0,0,1,.57-.82.71.71,0,1,1-.57.82Z" class="cls-5" transform="translate(0 0)"/><rect width="1.64" height=".46" x="280.97" y="462.94" class="cls-5" transform="translate(-76.22 56.03) rotate(-10.01)"/><polygon points="274.32 464.25 275.93 463.97 276.01 464.42 274.39 464.71 274.32 464.25" class="cls-5"/><path d="M280.35,473.89c6.34-1.15,8.37-6,7.47-11a8.64,8.64,0,0,0-.8-2.28l-.37.06s1.53,3.88-.68,6.93c-1.2.1-2.39-.69-5.1-.09a14.66,14.66,0,0,0-7.09,2.94c-3-1.76-4-6.73-4-6.73l-.37.07a8.43,8.43,0,0,0,.06,2.42c.52,2.89,2.88,5.91,2,8.35,1.78-.63,6.18-.22,8.85-.7" class="cls-31" transform="translate(0 0)"/><polygon points="228.97 460.2 248.66 460.2 248.38 467.11 229.31 468.66 228.97 460.2" class="cls-10"/><path d="M245.46,418.47v-1.79a3.33,3.33,0,0,0-6.65,0,3.33,3.33,0,1,0-6.65,0v1.79Z" class="cls-5" transform="translate(0 0)"/><path d="M253.15,446.3c-.24-.7.57-1.61,1.8-2l.49-.17c1.24-.43,2.42-.22,2.65.47l.47,1.39c.23.7-.58,1.6-1.8,2l-.5.18c-1.23.43-2.42.22-2.65-.48Z" class="cls-6" transform="translate(0 0)"/><path d="M224.48,446.29c.23-.69-.58-1.6-1.81-2l-.49-.17c-1.23-.43-2.42-.22-2.65.47l-.47,1.39c-.23.69.58,1.61,1.81,2l.5.18c1.22.43,2.41.22,2.64-.48Z" class="cls-6" transform="translate(0 0)"/><path d="M229.76,467.09a9.05,9.05,0,1,0,18.1-.31,9.36,9.36,0,0,0-5.45-8v-7h-7.19v7A9.42,9.42,0,0,0,229.76,467.09Z" class="cls-6" transform="translate(0 0)"/><rect width="13.3" height="19.03" x="232.16" y="418.47" class="cls-12"/><polygon points="239.23 418.47 238.81 435.38 238.4 418.47 239.23 418.47" class="cls-7"/><path d="M226.12,450.42s4.82,5.64,5.66,6a12.1,12.1,0,0,0,3.42,1s-.39-4.2,3.61-4a3.57,3.57,0,0,1,3.61,4,11.72,11.72,0,0,0,3.42-1c.84-.35,5.67-6,5.67-6l3.71-2.39-1.67-2.54-4.62,2-3.42,3,1-8.85V436h-15.4v5.82l1,8.72-3.42-3-4.61-2L222.4,448Z" class="cls-26" transform="translate(0 0)"/><path d="M242.18,462.13a3.36,3.36,0,0,0-3.37-2.27,3.33,3.33,0,0,0-3.36,2.28Z" class="cls-9" transform="translate(0 0)"/><path d="M241.47,465.67a.71.71,0,0,1,1.42,0,.71.71,0,1,1-1.42,0Z" class="cls-5" transform="translate(0 0)"/><path d="M234.74,465.67a.71.71,0,1,1,.71.71A.71.71,0,0,1,234.74,465.67Z" class="cls-5" transform="translate(0 0)"/><rect width="1.64" height=".46" x="241.36" y="466.99" class="cls-10"/><rect width=".46" height="1.64" x="235.22" y="466.4" class="cls-10" transform="translate(-232.06 702.12) rotate(-89.93)"/><path d="M244.73,471.51a8.43,8.43,0,0,0,1.93-5.35,13,13,0,0,0-1.09-5.56,6.92,6.92,0,0,1,2.8,5.16s.67,7.67-5.3,10.37-10.21-.09-12.34-3.55a9.42,9.42,0,0,1-1-8.19,9.63,9.63,0,0,1,2.14-3.78c-.34,1.32-1.27.67-.88,6.52.86.29,8.67-2.08,13.72,4.38" class="cls-10" transform="translate(0 0)"/><path d="M214.16,416.9l.31-1.77a3.33,3.33,0,1,0-6.55-1.15,3.33,3.33,0,1,0-6.55-1.15l-.31,1.76Z" class="cls-5" transform="translate(0 0)"/><path d="M216.9,445.63c-.11-.72.84-1.48,2.13-1.69l.52-.08c1.28-.21,2.42.2,2.52.92l.22,1.46c.11.72-.85,1.47-2.13,1.68l-.52.09c-1.29.21-2.42-.2-2.52-.93Z" class="cls-6" transform="translate(0 0)"/><path d="M188.66,440.65c.35-.64-.28-1.67-1.42-2.31l-.46-.26c-1.14-.63-2.34-.63-2.69,0l-.7,1.29c-.35.64.29,1.68,1.43,2.31l.46.26c1.13.64,2.34.63,2.69,0Z" class="cls-6" transform="translate(0 0)"/><path d="M190.26,462.05a9.05,9.05,0,1,0,17.88,2.84,9.39,9.39,0,0,0-4-8.84l1.22-6.93-7.08-1.25-1.22,6.92A9.38,9.38,0,0,0,190.26,462.05Z" class="cls-6" transform="translate(0 0)"/><rect width="19.03" height="13.3" x="196.45" y="418.46" class="cls-18" transform="translate(-248.45 554.17) rotate(-80.01)"/><polygon points="208.02 415.81 204.68 432.39 207.2 415.67 208.02 415.81" class="cls-7"/><path d="M189.56,445s3.77,6.39,4.54,6.88a12,12,0,0,0,3.19,1.61s0-4,4.25-3.29a3.28,3.28,0,0,1,2.86,4.54,11.77,11.77,0,0,0,3.55-.42c.89-.2,6.62-4.91,6.62-4.91l4.07-1.72-1.21-2.79-4.89,1.16-3.89,2.37,2.52-8.54,1-5.6h0L197,431.63h0l-1,5.73-.53,8.77-2.84-3.56-4.2-2.77L186.32,442Z" class="cls-21" transform="translate(0 0)"/><path d="M203.34,459.33a3.62,3.62,0,0,0-6.62-1.17Z" class="cls-9" transform="translate(0 0)"/><path d="M202,462.69a.71.71,0,1,1,1.4.24.72.72,0,0,1-.82.58A.71.71,0,0,1,202,462.69Z" class="cls-18" transform="translate(0 0)"/><path d="M195.41,461.52a.7.7,0,0,1,.82-.58.72.72,0,0,1,.57.83.71.71,0,0,1-1.39-.25Z" class="cls-18" transform="translate(0 0)"/><rect width=".46" height="1.64" x="202.23" y="463.52" class="cls-15" transform="translate(-290.01 582.96) rotate(-79.98)"/><rect width=".46" height="1.64" x="195.6" y="462.35" class="cls-15" transform="matrix(0.17, -0.98, 0.98, 0.17, -294.46, 574.93)"/><path d="M204.22,469.35a8.38,8.38,0,0,0,2.86-4.92,12.82,12.82,0,0,0-.08-5.67,6.9,6.9,0,0,1,1.83,5.58s-.7,7.66-7.06,9.26-10-1.91-11.51-5.7a9.4,9.4,0,0,1,.5-8.23,13.14,13.14,0,0,1,3.51-3.94c-.56,1.24-2.1,1-2.76,6.86.79.44,8.9-.5,12.71,6.76" class="cls-15" transform="translate(0 0)"/><path d="M150.8,449.65a2.9,2.9,0,0,0,3.91,1.24,2.9,2.9,0,1,0-3.91-1.24" class="cls-5" transform="translate(0 0)"/><path d="M167.29,454.88a2.9,2.9,0,0,0,3.91,1.24,2.9,2.9,0,0,0-2.67-5.15,3,3,0,0,0-1.43,1.7,2.93,2.93,0,0,0,.19,2.21" class="cls-5" transform="translate(0 0)"/><path d="M183.61,409.91l.61-1.68A3.32,3.32,0,1,0,178,406a3.33,3.33,0,1,0-6.25-2.28l-.61,1.69Z" class="cls-5" transform="translate(0 0)"/><path d="M181.32,438.69c0-.73,1.09-1.31,2.39-1.3h.52c1.31,0,2.35.62,2.33,1.35l0,1.47c0,.73-1.09,1.3-2.39,1.29h-.53c-1.3,0-2.34-.62-2.32-1.35Z" class="cls-16" transform="translate(0 0)"/><path d="M154.38,428.88c.45-.57,0-1.7-1-2.52L153,426c-1-.82-2.2-1-2.65-.46l-.92,1.15c-.45.57,0,1.7,1,2.53l.4.33c1,.82,2.2,1,2.66.46Z" class="cls-16" transform="translate(0 0)"/><path d="M152.23,450.23a9.05,9.05,0,0,0,16.27,7.69,8.9,8.9,0,0,0,.84-1.79,9.36,9.36,0,0,0-2.38-9.39l2.41-6.62-6.75-2.45-2.41,6.59A9.41,9.41,0,0,0,152.23,450.23Z" class="cls-16" transform="translate(0 0)"/><rect width="19.03" height="13.3" x="164.59" y="409.93" class="cls-26" transform="matrix(0.34, -0.94, 0.94, 0.34, -276.9, 437.75)"/><polygon points="177.75 407.78 171.58 423.53 176.97 407.5 177.75 407.78" class="cls-7"/><path d="M154.5,433.32s2.61,6.95,3.28,7.57a11.88,11.88,0,0,0,2.86,2.14l4.75-2.51,2,5a12.11,12.11,0,0,0,3.57.2c.91-.05,7.38-3.69,7.38-3.69l4.3-1-.7-3-5,.29L172.71,440l4-8,2-5.35h0l-14.43-5.24,0,0-2,5.47-2,8.54-2.18-4L154.27,428l-2.44,1.81Z" class="cls-8" transform="translate(0 0)"/><path d="M165.59,449.82a3.62,3.62,0,0,0-6.32-2.3Z" class="cls-9" transform="translate(0 0)"/><path d="M163.71,452.9a.72.72,0,0,1,.91-.42.71.71,0,0,1,.43.9.71.71,0,1,1-1.34-.48Z" class="cls-5" transform="translate(0 0)"/><path d="M157.39,450.6a.7.7,0,0,1,.91-.42.69.69,0,0,1,.42.9.71.71,0,0,1-.9.43A.72.72,0,0,1,157.39,450.6Z" class="cls-5" transform="translate(0 0)"/><polygon points="163.16 454.11 164.7 454.67 164.54 455.1 163 454.54 163.16 454.11" class="cls-5"/><rect width=".46" height="1.64" x="157.3" y="451.48" class="cls-5" transform="matrix(0.34, -0.94, 0.94, 0.34, -321.37, 445.19)"/><path d="M149.34,453.77a3.85,3.85,0,0,0-.47.65,3.7,3.7,0,0,0,1.45,5,3.39,3.39,0,0,0,1.54.42,3.91,3.91,0,0,0-.12.91,3.69,3.69,0,0,0,3.69,3.63,3.57,3.57,0,0,0,1.93-.59,3.54,3.54,0,0,0,.48.87,3.69,3.69,0,0,0,5.13.66A3.61,3.61,0,0,0,164,464a3.57,3.57,0,0,0,.56.26,3.7,3.7,0,0,0,4.59-2.39,3.36,3.36,0,0,0,.16-1.13,2.86,2.86,0,0,0,2.56-2,2.86,2.86,0,1,0-5.46-1.73,2.74,2.74,0,0,0-.08,1.3,2.44,2.44,0,0,0-.24-.1,2.9,2.9,0,0,0-3.55,1.74,2.57,2.57,0,0,0-1.33-1,2.45,2.45,0,0,0-1.65.06,2.87,2.87,0,0,0-2-2.57,2.83,2.83,0,0,0-2,.14s0,0,0,0a2.89,2.89,0,0,0-1.86-3.6,2.76,2.76,0,0,0-1.06-.11l.07-.18a2.25,2.25,0,1,0-4.29-1.36A2.25,2.25,0,0,0,149.34,453.77Z" class="cls-5" transform="translate(0 0)"/><path d="M154.74,397.73l.89-1.55a3.32,3.32,0,1,0-5.76-3.32,3.33,3.33,0,1,0-5.76-3.33l-.89,1.55Z" class="cls-5" transform="translate(0 0)"/><path d="M147.48,425.67c.14-.72,1.3-1.1,2.58-.86l.52.1c1.28.24,2.2,1,2,1.73l-.29,1.44c-.15.72-1.3,1.1-2.58.86l-.52-.1c-1.28-.24-2.2-1-2.05-1.74Z" class="cls-6" transform="translate(0 0)"/><path d="M122.65,411.33c.55-.48.31-1.67-.55-2.66l-.34-.4c-.85-1-2-1.39-2.53-.91l-1.1,1c-.54.48-.3,1.68.55,2.66l.35.4c.84,1,2,1.4,2.53.91Z" class="cls-6" transform="translate(0 0)"/><path d="M116.83,432a9.06,9.06,0,0,0,14.69,10.41A8.91,8.91,0,0,0,132,431.1l3.52-6.09-6.23-3.59-3.51,6.07A9.42,9.42,0,0,0,116.83,432Z" class="cls-6" transform="translate(0 0)"/><rect width="19.03" height="13.3" x="134.71" y="396" class="cls-14" transform="translate(-276.6 326.25) rotate(-60)"/><polygon points="149.34 394.61 140.53 409.05 148.62 394.2 149.34 394.61" class="cls-7"/><path d="M122,415.73s1.35,7.3,1.91,8a12.17,12.17,0,0,0,2.44,2.61l5.12-1.65,1.13,5.25a11.88,11.88,0,0,0,3.48.82c.91.11,7.91-2.35,7.91-2.35l4.41-.22-.18-3-5-.58-4.47.9,5.29-7.17,2.85-4.92,0,0-13.29-7.67h0l-2.91,5-3.5,8.06-1.45-4.32-3-4L120,411.8Z" class="cls-23" transform="translate(0 0)"/><path d="M130.06,433.9a3.62,3.62,0,0,0-5.83-3.36Z" class="cls-9" transform="translate(0 0)"/><path d="M127.68,436.61a.7.7,0,0,1,1-.26.72.72,0,0,1,.26,1,.71.71,0,0,1-1,.25A.69.69,0,0,1,127.68,436.61Z" class="cls-5" transform="translate(0 0)"/><path d="M121.85,433.25a.71.71,0,0,1,1.23.7.71.71,0,0,1-1.23-.7Z" class="cls-5" transform="translate(0 0)"/><polygon points="126.92 437.7 128.34 438.52 128.11 438.92 126.69 438.1 126.92 437.7" class="cls-5"/><polygon points="121.09 434.34 122.51 435.16 122.28 435.56 120.86 434.73 121.09 434.34" class="cls-5"/><path d="M134.2,439.06l-.39-.23c-.11.21-2.73,4.05-5.2,4.48-1.75-3.37-7.93-7.45-12.51-7.76a30.21,30.21,0,0,1,2.21-6.1l-.47-.28a10.92,10.92,0,0,0-3.15,6.94c-.42,4,2.7,9.18,9.52,10s9.82-6.65,9.82-6.65.12-.26.17-.39" class="cls-33" transform="translate(0 0)"/><polygon points="93.9 396.88 109.08 409.05 99.49 419.98 84.64 408.01 93.9 396.88" class="cls-30"/><path d="M128.41,380.72l1.16-1.37a3.33,3.33,0,1,0-5.1-4.28,3.32,3.32,0,1,0-5.09-4.27l-1.15,1.37Z" class="cls-5" transform="translate(0 0)"/><path d="M116.42,407c.27-.68,1.47-.86,2.69-.4l.49.19c1.22.46,2,1.39,1.73,2.06l-.54,1.37c-.27.68-1.47.85-2.69.4l-.5-.19c-1.21-.46-2-1.38-1.72-2.07Z" class="cls-6" transform="translate(0 0)"/><path d="M94.46,388.54c.62-.38.59-1.59-.08-2.72l-.27-.45c-.66-1.12-1.71-1.72-2.33-1.34l-1.25.77c-.62.38-.59,1.6.08,2.72l.27.45c.66,1.12,1.71,1.72,2.33,1.34Z" class="cls-6" transform="translate(0 0)"/><path d="M85.14,407.87A9.05,9.05,0,0,0,97.8,420.66a8.76,8.76,0,0,0,1.4-1.39,9.38,9.38,0,0,0,1-9.64l4.52-5.4-5.5-4.61L94.68,405A9.4,9.4,0,0,0,85.14,407.87Z" class="cls-6" transform="translate(0 0)"/><rect width="19.03" height="13.3" x="107.69" y="377.08" class="cls-34" transform="translate(-252.11 226.9) rotate(-50.01)"/><polygon points="123.64 376.71 112.46 389.39 123 376.18 123.64 376.71" class="cls-7"/><path d="M93.06,392.76s.07,7.42.49,8.23a12.05,12.05,0,0,0,2,3,3.75,3.75,0,0,1,5.33-.73c3.06,2.26.2,5.37.2,5.37a11.81,11.81,0,0,0,3.29,1.41c.87.27,8.19-.95,8.19-.95l4.38.55.35-3-4.81-1.45-4.55.11,6.45-6.13,3.65-4.36,0,0-11.75-9.87,0,0-3.73,4.46-4.84,7.33-.69-4.51-2.25-4.49-2.92.87Z" class="cls-11" transform="translate(0 0)"/><path d="M97.83,412.05a3.62,3.62,0,0,0-5.15-4.32Z" class="cls-9" transform="translate(0 0)"/><path d="M95,414.3a.72.72,0,0,1,1-.08.71.71,0,0,1-.91,1.08A.71.71,0,0,1,95,414.3Z" class="cls-5" transform="translate(0 0)"/><path d="M89.86,410a.71.71,0,1,1,.09,1A.71.71,0,0,1,89.86,410Z" class="cls-5" transform="translate(0 0)"/><rect width=".46" height="1.64" x="94.33" y="415.13" class="cls-10" transform="translate(-284.79 220.89) rotate(-49.98)"/><rect width=".46" height="1.64" x="89.18" y="410.81" class="cls-10" transform="translate(-283.13 215.03) rotate(-49.92)"/><path d="M84.14,412.89a11.37,11.37,0,0,1,2.52-5.6c2.25-2.68,5.76-6.15,5.76-6.15l-2.94,1.2s-4.07,4.67-4.89,5.73c-1.56,2-3.66,5.44-1.85,9.51,2.38,5.36,7.84,7.32,11.87,6a10.14,10.14,0,0,0,4.62-3.33,14.74,14.74,0,0,0,2.12-2.93c1-2,.72-5.41.72-5.41.19,1.77,1.12,4.23-4.55,8.81-.27-1.85-4.2-6-13.38-7.86" class="cls-30" transform="translate(0 0)"/><path d="M68.62,393.45A11.31,11.31,0,0,0,71,392.13l7.09-5.43-12.45-14-7.38,5.11a10.31,10.31,0,0,0-1.91,1.81Z" class="cls-35" transform="translate(0 0)"/><path d="M105.45,359.39l1.37-1.15a3.32,3.32,0,1,0-4.27-5.09,3.33,3.33,0,0,0-4.28-5.1l-1.37,1.16Z" class="cls-5" transform="translate(0 0)"/><path d="M89.08,383.17c.38-.63,1.6-.6,2.71.07l.46.27c1.12.67,1.72,1.71,1.34,2.33l-.77,1.26c-.38.62-1.6.58-2.72-.08l-.45-.28c-1.12-.66-1.72-1.7-1.34-2.33Z" class="cls-10" transform="translate(0 0)"/><path d="M70.65,361.2c.68-.27.86-1.47.39-2.69l-.18-.49c-.46-1.22-1.39-2-2.07-1.72l-1.36.54c-.68.26-.86,1.47-.4,2.69l.19.49c.46,1.21,1.39,2,2.07,1.72Z" class="cls-10" transform="translate(0 0)"/><path d="M58.12,378.62a9.05,9.05,0,0,0,10.24,14.8A9.71,9.71,0,0,0,70,392.29,9.4,9.4,0,0,0,72.62,383L78,378.44l-4.62-5.51L68,377.44A9.41,9.41,0,0,0,58.12,378.62Z" class="cls-10" transform="translate(0 0)"/><path d="M68.54,365.11s-1.22,7.32-1,8.2A11.75,11.75,0,0,0,69,376.59l5.37.2-.73,5.33a12.05,12.05,0,0,0,3,1.95c.81.42,8.23.5,8.23.5l4.22,1.3L90,383l-4.49-2.26L81,380l7.42-4.92,18-14.75,0,0-9.87-11.76,0,0-18,14.82-6,6.38.11-4.55L71,360.38l-3,.35Z" class="cls-3" transform="translate(0 0)"/><path d="M69.89,384.94a3.62,3.62,0,0,0-4.32-5.15Z" class="cls-9" transform="translate(0 0)"/><path d="M66.73,386.67a.71.71,0,1,1-.09,1A.71.71,0,0,1,66.73,386.67Z" class="cls-5" transform="translate(0 0)"/><path d="M62.4,381.52a.71.71,0,1,1-.08,1A.7.7,0,0,1,62.4,381.52Z" class="cls-5" transform="translate(0 0)"/><rect width=".46" height="1.64" x="65.76" y="387.39" class="cls-5" transform="translate(-234.09 133.23) rotate(-40)"/><rect width=".46" height="1.64" x="61.44" y="382.24" class="cls-5" transform="translate(-231.6 129.02) rotate(-39.95)"/><path d="M72,393.07s-8.81-9.29-13.58-8.24c0,0,3.43-4.52.61-9.16,0,0-8.11,4.42-4.84,13.14s12.86,9.38,17.81,4.26" class="cls-35" transform="translate(0 0)"/><path d="M86.54,334.41l1.55-.9a3.33,3.33,0,1,0-3.33-5.76A3.32,3.32,0,0,0,81.44,322l-1.55.9Z" class="cls-5" transform="translate(0 0)"/><path d="M66.28,355c.49-.55,1.68-.3,2.67.55l.39.34c1,.85,1.4,2,.92,2.53l-1,1.1c-.49.55-1.68.3-2.67-.55l-.39-.34c-1-.85-1.4-2-.92-2.53Z" class="cls-6" transform="translate(0 0)"/><path d="M52,330.14c.72-.14,1.1-1.29.86-2.58l-.1-.51c-.24-1.28-1-2.2-1.73-2.06l-1.44.29c-.72.15-1.1,1.31-.86,2.58l.1.52c.24,1.28,1,2.2,1.74,2.06Z" class="cls-6" transform="translate(0 0)"/><path d="M36.58,345.12a9.05,9.05,0,0,0,7.52,16.35,8.59,8.59,0,0,0,1.8-.83,9.39,9.39,0,0,0,4.22-8.73l6.09-3.52-3.59-6.22-6.08,3.51A9.41,9.41,0,0,0,36.58,345.12Z" class="cls-6" transform="translate(0 0)"/><rect width="19.03" height="13.3" x="65.46" y="326.75" class="cls-18" transform="translate(-156.67 82.16) rotate(-30)"/><polygon points="83.42 329.01 68.57 337.1 83 328.29 83.42 329.01" class="cls-7"/><path d="M49.19,333.63s-2.47,7-2.35,7.9a11.72,11.72,0,0,0,.81,3.48s3.69-1.9,5.26,1.13-1.65,5.12-1.65,5.12a11.69,11.69,0,0,0,2.61,2.44c.72.56,8,1.92,8,1.92l3.93,2,1.36-2.72-4-3-4.32-1.45L67,346.9l4.93-2.84v0l-7.68-13.3v0l-5,2.9-7,5.23.9-4.46-.59-5-3-.19Z" class="cls-26" transform="translate(0 0)"/><path d="M43.67,354.54a.71.71,0,0,1,1,.26.7.7,0,0,1-.26,1,.69.69,0,0,1-1-.26A.71.71,0,0,1,43.67,354.54Z" class="cls-5" transform="translate(0 0)"/><path d="M40.3,348.72A.71.71,0,0,1,41,350a.73.73,0,0,1-1-.26A.71.71,0,0,1,40.3,348.72Z" class="cls-5" transform="translate(0 0)"/><rect width=".46" height="1.64" x="42.44" y="355.12" class="cls-5" transform="translate(-172 68.84) rotate(-29.95)"/><rect width=".46" height="1.64" x="39.08" y="349.29" class="cls-5" transform="translate(-169.4 66.28) rotate(-29.92)"/><path d="M49.42,348.4c-1.3-2.37-6.35-6.64-10.59-4.31l-.63.37a12,12,0,0,0-2.18.9c-4.36,2.39-7.25,7.18-4.21,12.71s8.63,5.65,13,3.26A11.78,11.78,0,0,0,46.68,360c.25-.12.49-.24.7-.36C51.62,357.31,50.72,350.76,49.42,348.4Zm-1.8,9.07a7.7,7.7,0,0,1-1.68,2.61,7.65,7.65,0,0,1-4.23.86c-4.38-.84-1.06-2.06-3.46-6.41s-5.14-2.24-3.5-6.39a7.09,7.09,0,0,1,2.61-2.86,6.59,6.59,0,0,1,3.43-.24c4.27.82,2.21,3.87,3.57,6.14C45.54,353.54,49.22,353.43,47.62,357.47Z" class="cls-5" transform="translate(0 0)"/><path d="M47.87,353.07a3.62,3.62,0,0,0-3.36-5.82Z" class="cls-9" transform="translate(0 0)"/><path d="M24.42,326.67a10.8,10.8,0,0,0,2.63-.39l13.58-4.69-6.41-18.52-13.56,5a16.14,16.14,0,0,0-2.82,1.73Z" class="cls-36" transform="translate(0 0)"/><path d="M72.25,306.51l1.68-.61a3.32,3.32,0,0,0-2.27-6.25,3.33,3.33,0,1,0-2.28-6.25L67.7,294Z" class="cls-5" transform="translate(0 0)"/><path d="M48.73,323.25c.57-.46,1.71,0,2.53,1l.33.41c.83,1,1,2.19.47,2.65l-1.15.91c-.58.46-1.71,0-2.53-1l-.33-.41c-.83-1-1-2.19-.46-2.65Z" class="cls-19" transform="translate(0 0)"/><path d="M38.93,296.31c.73,0,1.31-1.09,1.29-2.39v-.53c0-1.3-.62-2.34-1.35-2.33l-1.46,0c-.73,0-1.31,1.1-1.3,2.4V294c0,1.3.62,2.35,1.35,2.33Z" class="cls-19" transform="translate(0 0)"/><path d="M21.2,308.39a9.05,9.05,0,0,0,4.56,17.41,8.86,8.86,0,0,0,1.91-.51,9.36,9.36,0,0,0,5.67-7.86L40,315l-2.45-6.75-6.6,2.4A9.39,9.39,0,0,0,21.2,308.39Z" class="cls-19" transform="translate(0 0)"/><rect width="19.03" height="13.3" x="51.52" y="296.87" class="cls-26" transform="translate(-100.13 39.18) rotate(-20)"/><polygon points="70.12 300.65 54.09 306.05 69.83 299.87 70.12 300.65" class="cls-7"/><path d="M35.61,299.26s-3.65,6.46-3.69,7.38a11.38,11.38,0,0,0,.2,3.56l5,2L34.59,317a11.69,11.69,0,0,0,2.13,2.87c.62.67,7.57,3.28,7.57,3.28l3.52,2.66,1.82-2.44-3.45-3.66-4-2.18,8.65-2.08,5.35-1.95v0L50.92,299v0l-5.46,2-7.86,3.93,1.66-4.24.29-5L36.59,295Z" transform="translate(0 0)"/><path d="M30.1,318.36a3.37,3.37,0,0,0,1-3.94,3.34,3.34,0,0,0-3.3-2.38Z" class="cls-9" transform="translate(0 0)"/><path d="M26.53,318.9a.71.71,0,1,1,.49,1.33.71.71,0,0,1-.49-1.33Z" class="cls-2" transform="translate(0 0)"/><path d="M24.23,312.58a.7.7,0,0,1,.91.42.71.71,0,0,1-1.33.49A.7.7,0,0,1,24.23,312.58Z" class="cls-2" transform="translate(0 0)"/><rect width=".46" height="1.64" x="25.08" y="319.28" class="cls-5" transform="translate(-107.78 27.88) rotate(-19.96)"/><polygon points="22.95 312.93 23.51 314.47 23.08 314.63 22.52 313.08 22.95 312.93" class="cls-5"/><path d="M22.84,307.28c-8.39,2.09-9.39,9.21-8,13.2s6.34,9.14,14.71,4.46l-7.49-1.53Z" class="cls-36" transform="translate(0 0)"/><path d="M63,276.56l1.77-.31a3.33,3.33,0,0,0-1.16-6.55,3.33,3.33,0,1,0-1.16-6.55l-1.76.31Z" class="cls-5" transform="translate(0 0)"/><path d="M37,289c.64-.35,1.68.29,2.31,1.43l.26.45c.63,1.14.63,2.35,0,2.7l-1.29.7c-.64.35-1.67-.3-2.31-1.43l-.26-.46c-.64-1.14-.63-2.34,0-2.69Z" class="cls-6" transform="translate(0 0)"/><path d="M32,260.73c.72.11,1.48-.85,1.69-2.13l.08-.52c.21-1.29-.2-2.42-.92-2.53l-1.46-.21c-.72-.11-1.47.84-1.68,2.13l-.09.52c-.21,1.28.21,2.41.93,2.52Z" class="cls-6" transform="translate(0 0)"/><path d="M12.42,269.54a9.05,9.05,0,0,0,1.47,17.94,8.78,8.78,0,0,0,2-.16,9.4,9.4,0,0,0,7-6.76l6.93-1.23-1.25-7.07-6.91,1.21A9.42,9.42,0,0,0,12.42,269.54Z" class="cls-6" transform="translate(0 0)"/><polygon points="41.97 266.77 44.28 279.87 63.37 277.6 60.71 261.87 41.97 266.77" class="cls-20"/><polygon points="61.94 270.42 45.22 272.95 61.8 269.61 61.94 270.42" class="cls-7"/><path d="M28.2,263.06s-4.72,5.73-4.92,6.62a11.77,11.77,0,0,0-.42,3.55l4.55,2.86-3.3,4.24a11.68,11.68,0,0,0,1.61,3.19c.49.77,6.88,4.55,6.88,4.55l3,3.23,2.21-2.08L35.06,285l-3.56-2.84,8.88-.56,5.61-1v0l-2.66-15.12v0l-5.72,1L29.17,269l2.37-3.89,1.16-4.89L29.91,259Z" class="cls-12" transform="translate(0 0)"/><path d="M19.45,280.91a3.63,3.63,0,0,0-1.17-6.63Z" class="cls-9" transform="translate(0 0)"/><path d="M15.85,280.82a.73.73,0,0,1,.82.58.71.71,0,1,1-1.4.24A.72.72,0,0,1,15.85,280.82Z" class="cls-5" transform="translate(0 0)"/><path d="M14.68,274.2a.71.71,0,1,1,.24,1.39.71.71,0,0,1-.24-1.39Z" class="cls-5" transform="translate(0 0)"/><rect width=".46" height="1.64" x="14.21" y="280.97" class="cls-5" transform="translate(-48.61 6.77) rotate(-9.98)"/><polygon points="13.36 274.32 13.64 275.93 13.19 276.02 12.9 274.4 13.36 274.32" class="cls-5"/><path d="M18.41,285.23l-.65.25a7.8,7.8,0,0,1-2.65.46,5.85,5.85,0,0,1-3.18-.87,7.64,7.64,0,0,1,.11-.85,8.62,8.62,0,0,0,0-3.79,14.7,14.7,0,0,0-2.68-6.72c1.69-2.36,5.79-3.18,5.83-3.19l.56-.11-.25-1.35-.68,0a8,8,0,0,0-2.21.07,16.66,16.66,0,0,0-3.22,1.07c-1.67.69-3.28,1.28-4.45.86l-1.14-.41.4,1.14a17.52,17.52,0,0,1,.36,4.1,29.29,29.29,0,0,0,.28,4.26c.9,4.95,4.15,7.79,8.93,7.79a13,13,0,0,0,2.21-.2A8,8,0,0,0,18,287l.64-.29Z" class="cls-5" transform="translate(0 0)"/><polygon points="18.46 228.97 18.46 248.66 11.38 248.38 9.91 229.31 18.46 228.97" class="cls-10"/><path d="M59.14,245.46h1.79a3.33,3.33,0,0,0,0-6.65,3.33,3.33,0,0,0,0-6.65H59.14Z" class="cls-5" transform="translate(0 0)"/><path d="M31.31,253.15c.7-.23,1.61.57,2,1.8l.17.5c.43,1.23.22,2.42-.47,2.65l-1.4.47c-.69.23-1.6-.58-2-1.81l-.17-.5c-.43-1.23-.22-2.41.47-2.64Z" class="cls-6" transform="translate(0 0)"/><path d="M31.32,224.48c.69.23,1.6-.57,2-1.81l.17-.49c.43-1.23.22-2.42-.47-2.65l-1.39-.47c-.7-.23-1.61.58-2,1.81l-.17.5c-.43,1.23-.22,2.41.48,2.65Z" class="cls-6" transform="translate(0 0)"/><path d="M10.52,229.76a9.06,9.06,0,0,0-1.67,17.93,9.24,9.24,0,0,0,2,.18,9.39,9.39,0,0,0,8-5.45h7v-7.18h-7A9.42,9.42,0,0,0,10.52,229.76Z" class="cls-6" transform="translate(0 0)"/><rect width="19.03" height="13.3" x="40.11" y="232.16" class="cls-18"/><polygon points="59.14 239.23 42.23 238.81 59.14 238.4 59.14 239.23" class="cls-7"/><path d="M27.18,226.12s-5.64,4.82-6,5.67a11.91,11.91,0,0,0-1,3.42s4,.24,4,3.6-4,3.61-4,3.61a11.91,11.91,0,0,0,1,3.42c.36.85,6,5.67,6,5.67l2.4,3.71,2.54-1.67-2-4.62-3-3.41,8.84,1h5.69V231.11H35.84l-8.72,1,3-3.42,2-4.61-2.54-1.68Z" class="cls-3" transform="translate(0 0)"/><path d="M15.47,242.18a3.62,3.62,0,0,0,0-6.73Z" class="cls-9" transform="translate(0 0)"/><path d="M11.94,241.47a.71.71,0,1,1-.71.71A.71.71,0,0,1,11.94,241.47Z" class="cls-5" transform="translate(0 0)"/><path d="M11.94,234.74a.71.71,0,1,1-.71.71A.71.71,0,0,1,11.94,234.74Z" class="cls-5" transform="translate(0 0)"/><rect width=".46" height="1.64" x="10.16" y="241.36" class="cls-10"/><rect width="1.64" height=".46" x="9.56" y="235.22" class="cls-10" transform="matrix(0, -1, 1, 0, -225.08, 245.55)"/><path d="M6.82,244.72a8.4,8.4,0,0,0,5.35,1.94,13,13,0,0,0,5.56-1.09,6.92,6.92,0,0,1-5.16,2.8S4.9,249,2.2,243.07s.09-10.21,3.55-12.34a9.42,9.42,0,0,1,8.19-1,13.09,13.09,0,0,1,4.5,2.75c-1.32-.33-1.39-1.88-7.25-1.49-.28.86,2.09,8.67-4.37,13.71" class="cls-10" transform="translate(0 0)"/><path d="M60.71,214.16l1.76.32a3.33,3.33,0,1,0,1.16-6.55,3.33,3.33,0,1,0,1.15-6.55L63,201.07Z" class="cls-5" transform="translate(0 0)"/><path d="M32,216.9c.73-.11,1.49.85,1.69,2.13l.09.52c.21,1.29-.21,2.42-.93,2.53l-1.45.21c-.72.11-1.47-.84-1.69-2.13l-.08-.52c-.21-1.28.2-2.41.93-2.52Z" class="cls-6" transform="translate(0 0)"/><path d="M37,188.67c.64.35,1.67-.29,2.31-1.43l.26-.46c.63-1.13.63-2.34,0-2.69l-1.29-.7c-.64-.35-1.68.3-2.31,1.43l-.26.46c-.64,1.13-.64,2.34,0,2.69Z" class="cls-6" transform="translate(0 0)"/><path d="M15.56,190.26a9.06,9.06,0,0,0-4.76,17.36,9.37,9.37,0,0,0,1.92.52,9.39,9.39,0,0,0,8.84-4l6.93,1.23,1.24-7.08-6.91-1.22A9.41,9.41,0,0,0,15.56,190.26Z" class="cls-6" transform="translate(0 0)"/><rect width="13.3" height="19.03" x="45.84" y="196.45" class="cls-11" transform="translate(-159.45 221.91) rotate(-80)"/><polygon points="61.79 208.02 45.21 204.68 61.94 207.21 61.79 208.02" class="cls-7"/><path d="M32.6,189.56s-6.39,3.78-6.88,4.55a11.91,11.91,0,0,0-1.61,3.18s3.81.94,3.29,4.25-4.54,2.86-4.54,2.86a11.43,11.43,0,0,0,.42,3.55c.2.89,4.91,6.62,4.91,6.62l1.72,4.07,2.79-1.2-1.16-4.9-2.37-3.88,8.54,2.52,5.6,1v0L46,197v0l-5.73-1-8.77-.52,3.56-2.85,2.76-4.2-2.2-2.09Z" class="cls-21" transform="translate(0 0)"/><path d="M18.28,203.35a3.63,3.63,0,0,0,1.17-6.63Z" class="cls-9" transform="translate(0 0)"/><path d="M14.92,202a.7.7,0,0,1,.58.82.71.71,0,0,1-1.4-.25A.7.7,0,0,1,14.92,202Z" class="cls-18" transform="translate(0 0)"/><path d="M16.09,195.41a.71.71,0,1,1-.25,1.39.7.7,0,0,1-.57-.82A.71.71,0,0,1,16.09,195.41Z" class="cls-18" transform="translate(0 0)"/><rect width="1.64" height=".46" x="12.45" y="202.23" class="cls-5" transform="translate(-188.4 180.21) rotate(-79.95)"/><rect width="1.64" height=".46" x="13.62" y="195.61" class="cls-5" transform="translate(-180.92 175.9) rotate(-79.96)"/><path d="M30.52,190.33l-19.1-2.18a4.14,4.14,0,1,0-4.8,4.51c-2,2-3.11,5-2.07,9.16l0,.08c-.14,0-.28,0-.42,0a4.16,4.16,0,1,0,3.46,6.45l17.94,5.55a2.28,2.28,0,1,0,1-4.43L18.05,208a5.14,5.14,0,0,0,1.33-1,12.77,12.77,0,0,1-5.66.08,8.44,8.44,0,0,1-4.92-2.86c7.26-3.81,6.32-11.92,6.75-12.71,5.84.65,5.62,2.2,6.87,2.76a18.59,18.59,0,0,0-1.61-1.8l8.88,2.28a2.28,2.28,0,1,0,.83-4.47Z" class="cls-16" transform="translate(0 0)"/><path d="M22.72,166.91a2.89,2.89,0,0,0-1.57,3.78,2.94,2.94,0,0,0,1.57,1.57,2.9,2.9,0,1,0,2.22-5.35,2.85,2.85,0,0,0-2.22,0" class="cls-21" transform="translate(0 0)"/><path d="M29.34,150.92a2.9,2.9,0,0,0-1.57,3.79,2.88,2.88,0,0,0,1.57,1.57,2.89,2.89,0,0,0,3.78-1.57,2.9,2.9,0,0,0-1.57-3.79,2.92,2.92,0,0,0-2.21,0" class="cls-21" transform="translate(0 0)"/><path d="M67.69,183.61l1.69.62A3.32,3.32,0,0,0,71.65,178a3.32,3.32,0,1,0,2.27-6.25l-1.68-.61Z" class="cls-5" transform="translate(0 0)"/><path d="M38.92,181.32c.73,0,1.31,1.09,1.29,2.39v.52c0,1.31-.62,2.35-1.35,2.33l-1.47,0c-.73,0-1.31-1.1-1.29-2.4v-.53c0-1.3.62-2.34,1.35-2.32Z" class="cls-16" transform="translate(0 0)"/><path d="M48.73,154.38c.57.45,1.7,0,2.52-1l.34-.41c.82-1,1-2.2.46-2.65l-1.15-.91c-.57-.46-1.7,0-2.53,1l-.33.41c-.82,1-1,2.19-.46,2.65Z" class="cls-16" transform="translate(0 0)"/><path d="M27.38,152.23a9.06,9.06,0,0,0-7.7,16.27,9.28,9.28,0,0,0,1.8.85A9.39,9.39,0,0,0,30.87,167l6.61,2.4,2.46-6.75-6.59-2.4A9.42,9.42,0,0,0,27.38,152.23Z" class="cls-16" transform="translate(0 0)"/><rect width="13.3" height="19.03" x="54.38" y="164.6" class="cls-23" transform="translate(-123.46 171.93) rotate(-70.01)"/><polygon points="69.83 177.75 54.08 171.58 70.11 176.97 69.83 177.75" class="cls-7"/><path d="M44.29,154.5s-6.95,2.61-7.57,3.28a11.62,11.62,0,0,0-2.14,2.86s3.28,2.31,2.51,4.76-5,2-5,2a12.11,12.11,0,0,0-.2,3.57c0,.92,3.69,7.38,3.69,7.38l1,4.3,3-.7-.29-5-1.66-4.24,8,4,18.56,6.62v0l5.25-14.42v0l-18.68-6.66-8.54-2,4-2.19,3.45-3.65-1.81-2.45Z" class="cls-21" transform="translate(0 0)"/><path d="M27.79,165.59a3.62,3.62,0,0,0,2.3-6.32Z" class="cls-9" transform="translate(0 0)"/><path d="M24.71,163.72a.69.69,0,0,1,.42.9.71.71,0,0,1-.91.43.72.72,0,0,1-.42-.91A.7.7,0,0,1,24.71,163.72Z" class="cls-5" transform="translate(0 0)"/><path d="M27,157.4a.69.69,0,0,1,.42.9.71.71,0,0,1-.91.43.72.72,0,0,1-.42-.91A.7.7,0,0,1,27,157.4Z" class="cls-5" transform="translate(0 0)"/><rect width="1.64" height=".46" x="22.19" y="163.62" class="cls-5" transform="translate(-138.82 129.37) rotate(-69.98)"/><rect width="1.64" height=".46" x="24.49" y="157.3" class="cls-5" transform="translate(-131.35 127.32) rotate(-69.96)"/><path d="M25.36,149.11a3.88,3.88,0,0,0-.61-.52,3.69,3.69,0,0,0-5.07,1,3.47,3.47,0,0,0-.56,1.5,3.6,3.6,0,0,0-4.82,3.17,3.64,3.64,0,0,0,.42,2,3.14,3.14,0,0,0-.9.4,3.68,3.68,0,0,0-1.1,5.05A3.55,3.55,0,0,0,14,162.88a3.13,3.13,0,0,0-.3.54,3.7,3.7,0,0,0,2,4.78,3.43,3.43,0,0,0,1.12.25,2.89,2.89,0,1,0,2.65-2.77,2.36,2.36,0,0,0,.13-.23,2.89,2.89,0,0,0-1.44-3.68,2.47,2.47,0,0,0,1.22-2.88A2.9,2.9,0,0,0,22,157.13a2.82,2.82,0,0,0,0-2l0,0a2.89,2.89,0,0,0,3.74-1.55,3,3,0,0,0,.21-1.05l.16.09A2.25,2.25,0,1,0,28,148.44,2.25,2.25,0,0,0,25.36,149.11Z" class="cls-21" transform="translate(0 0)"/><path d="M79.88,154.74l1.55.89a3.32,3.32,0,1,0,3.32-5.75,3.33,3.33,0,1,0,3.33-5.76l-1.55-.9Z" class="cls-5" transform="translate(0 0)"/><path d="M51.94,147.48c.72.15,1.1,1.3.86,2.58l-.1.52c-.24,1.28-1,2.2-1.73,2.06l-1.44-.3c-.72-.14-1.1-1.3-.86-2.58l.1-.51c.24-1.28,1-2.2,1.73-2.06Z" class="cls-6" transform="translate(0 0)"/><path d="M66.28,122.66c.48.54,1.67.3,2.66-.55l.4-.35c1-.85,1.39-2,.91-2.52l-1-1.1c-.49-.55-1.68-.3-2.66.54l-.4.35c-1,.85-1.4,2-.92,2.53Z" class="cls-6" transform="translate(0 0)"/><path d="M45.63,116.83a9.06,9.06,0,0,0-10.41,14.69A8.9,8.9,0,0,0,46.5,132l6.1,3.52,3.59-6.23-6.07-3.51A9.43,9.43,0,0,0,45.63,116.83Z" class="cls-6" transform="translate(0 0)"/><rect width="13.3" height="19.03" x="68.31" y="134.71" class="cls-34" transform="translate(-87.42 137.05) rotate(-60.01)"/><polygon points="83 149.34 68.56 140.53 83.41 148.62 83 149.34" class="cls-7"/><path d="M61.88,122s-7.3,1.36-8,1.91a12,12,0,0,0-2.61,2.45l1.65,5.11-5.25,1.14a11.44,11.44,0,0,0-.82,3.47c-.12.91,2.35,7.91,2.35,7.91l.22,4.41,3-.18.59-5-.9-4.47,7.16,5.29,4.93,2.85,0,0,7.67-13.29v0l-5-2.91-8.06-3.49,4.32-1.46,4-3L65.81,120Z" class="cls-23" transform="translate(0 0)"/><path d="M43.71,130.06a3.62,3.62,0,0,0,3.36-5.82Z" class="cls-9" transform="translate(0 0)"/><path d="M41,127.68a.71.71,0,0,1-.71,1.23.71.71,0,1,1,.71-1.23Z" class="cls-5" transform="translate(0 0)"/><path d="M44.36,121.85a.71.71,0,1,1-1,.26A.7.7,0,0,1,44.36,121.85Z" class="cls-5" transform="translate(0 0)"/><polygon points="39.91 126.92 39.09 128.34 38.69 128.12 39.51 126.69 39.91 126.92" class="cls-5"/><rect width="1.64" height=".46" x="41.84" y="121.46" class="cls-5" transform="translate(-84.04 97.73) rotate(-59.97)"/><path d="M37.64,133.71l.23-.39c-.21-.12-4-2.73-4.48-5.2,3.38-1.75,7.45-7.93,7.76-12.51a30.21,30.21,0,0,1,6.1,2.21l.28-.47a10.92,10.92,0,0,0-6.94-3.15c-4-.42-9.17,2.7-10,9.52s6.66,9.82,6.66,9.82l.38.17" class="cls-33" transform="translate(0 0)"/><polygon points="81.1 93.9 68.93 109.08 57.94 99.28 69.91 84.59 81.1 93.9" class="cls-30"/><path d="M96.89,128.42l1.37,1.15a3.33,3.33,0,1,0,4.28-5.09,3.33,3.33,0,0,0,4.27-5.1l-1.37-1.15Z" class="cls-5" transform="translate(0 0)"/><path d="M70.64,116.42c.68.27.86,1.47.39,2.69l-.18.49c-.46,1.22-1.39,2-2.07,1.73l-1.36-.54c-.68-.27-.86-1.47-.4-2.69l.19-.49c.46-1.22,1.38-2,2.06-1.73Z" class="cls-6" transform="translate(0 0)"/><path d="M89.07,94.46c.38.62,1.59.59,2.71-.08l.45-.26c1.12-.67,1.72-1.72,1.35-2.34l-.77-1.25c-.38-.62-1.6-.58-2.72.08l-.45.27c-1.12.66-1.72,1.71-1.34,2.33Z" class="cls-6" transform="translate(0 0)"/><path d="M69.74,85.14A9.06,9.06,0,0,0,56.94,97.8a8.89,8.89,0,0,0,11,2.38l5.39,4.52L78,99.2l-5.37-4.51A9.43,9.43,0,0,0,69.74,85.14Z" class="cls-6" transform="translate(0 0)"/><rect width="13.3" height="19.03" x="87.23" y="107.7" class="cls-13" transform="translate(-56.25 113.79) rotate(-50)"/><polygon points="100.9 123.64 88.21 112.46 101.43 123.01 100.9 123.64" class="cls-7"/><path d="M84.85,93.06s-7.42.07-8.24.49a11.75,11.75,0,0,0-3,2l.73,5.32L69,101a11.75,11.75,0,0,0-1.41,3.28c-.27.87.94,8.19.94,8.19L68,116.9l3,.35,1.45-4.82-.11-4.55,6.13,6.45L82.82,118l0,0,9.86-11.76,0,0-4.45-3.74-7.33-4.84,4.51-.68,4.49-2.26-.87-2.91Z" class="cls-29" transform="translate(0 0)"/><path d="M65.55,97.84a3.63,3.63,0,0,0,4.33-5.16Z" class="cls-9" transform="translate(0 0)"/><path d="M63.3,95a.71.71,0,1,1-1,.09A.71.71,0,0,1,63.3,95Z" class="cls-2" transform="translate(0 0)"/><path d="M67.63,89.87A.71.71,0,0,1,66.72,91a.71.71,0,1,1,.91-1.08Z" class="cls-2" transform="translate(0 0)"/><polygon points="62.36 94.09 61.3 95.34 60.95 95.05 62.01 93.79 62.36 94.09" class="cls-10"/><rect width="1.64" height=".46" x="65.16" y="89.18" class="cls-10" transform="translate(-44.92 82.43) rotate(-49.97)"/><path d="M65.09,84.14a11.37,11.37,0,0,1,5.6,2.52c2.68,2.26,6.15,5.76,6.15,5.76l-1.2-2.94S71,85.42,69.91,84.59c-2-1.56-5.44-3.66-9.52-1.85-5.35,2.38-7.31,7.84-6,11.87a10.29,10.29,0,0,0,3.32,4.63,14.56,14.56,0,0,0,2.94,2,13.78,13.78,0,0,0,5.41.88c-1.77.18-4.23,1.11-8.81-4.56,1.85-.27,6-4.2,7.86-13.38" class="cls-30" transform="translate(0 0)"/><path d="M83,69.3a11.72,11.72,0,0,0,1.49,2.41L90.62,79l15.85-12.85-5.77-7.61a12.21,12.21,0,0,0-2-2Z" class="cls-5" transform="translate(0 0)"/><path d="M118.21,105.45l1.16,1.38a3.33,3.33,0,1,0,5.09-4.28,3.32,3.32,0,1,0,5.09-4.27L128.4,96.9Z" class="cls-5" transform="translate(0 0)"/><path d="M94.44,89.08c.63.38.59,1.6-.07,2.72l-.27.45c-.67,1.12-1.71,1.72-2.33,1.34l-1.26-.77c-.62-.38-.58-1.6.08-2.72l.27-.45c.67-1.12,1.71-1.72,2.33-1.34Z" class="cls-16" transform="translate(0 0)"/><path d="M116.41,70.65c.26.68,1.47.86,2.68.4l.49-.19c1.22-.46,2-1.38,1.73-2.06l-.54-1.37c-.26-.68-1.47-.85-2.69-.39l-.49.18c-1.21.46-2,1.39-1.72,2.07Z" class="cls-16" transform="translate(0 0)"/><path d="M99,58.12a9.05,9.05,0,0,0-14.8,10.24,8.87,8.87,0,0,0,10.46,4.26L99.17,78l5.51-4.62L100.17,68A9.41,9.41,0,0,0,99,58.12Z" class="cls-16" transform="translate(0 0)"/><rect width="13.3" height="19.03" x="110.54" y="84.38" class="cls-29" transform="translate(-32.93 97.3) rotate(-40)"/><polygon points="122.99 101.44 112.44 88.23 123.63 100.91 122.99 101.44" class="cls-7"/><path d="M112.5,68.54s-7.32-1.22-8.2-1A12.36,12.36,0,0,0,101,69s2.63,3.23-.21,5.37-5.32-.73-5.32-.73a11.78,11.78,0,0,0-1.95,3c-.42.81-.5,8.23-.5,8.23l-1.3,4.22,2.91.87,2.26-4.49.68-4.5,4.92,7.42,3.66,4.36,0,0L118,82.85h0l-3.74-4.46-6.37-6,4.55.11L117.23,71l-.35-3Z" class="cls-21" transform="translate(0 0)"/><path d="M92.67,69.89a3.62,3.62,0,0,0,5.15-4.32Z" class="cls-9" transform="translate(0 0)"/><path d="M90.94,66.73a.71.71,0,1,1-1-.09A.71.71,0,0,1,90.94,66.73Z" class="cls-5" transform="translate(0 0)"/><path d="M96.09,62.41a.71.71,0,0,1-1.09.91.71.71,0,0,1,1.09-.91Z" class="cls-5" transform="translate(0 0)"/><rect width="1.64" height=".46" x="88.57" y="65.77" class="cls-5" transform="translate(-21.51 72.9) rotate(-40)"/><rect width="1.64" height=".46" x="93.73" y="61.44" class="cls-5" transform="translate(-17.53 75.17) rotate(-39.98)"/><path d="M84.54,72.51s9.29-8.81,8.24-13.58c0,0,4.52,3.44,9.16.62,0,0-4.42-8.11-13.14-4.84s-9.38,12.85-4.26,17.8" class="cls-5" transform="translate(0 0)"/><path d="M143.2,86.54l.9,1.55a3.32,3.32,0,0,0,5.76-3.32,3.33,3.33,0,0,0,5.76-3.33l-.9-1.55Z" class="cls-5" transform="translate(0 0)"/><path d="M122.64,66.29c.54.48.3,1.67-.55,2.66l-.34.4c-.85,1-2,1.4-2.53.91l-1.1-1c-.55-.49-.3-1.68.55-2.66l.34-.4c.85-1,2-1.4,2.53-.91Z" class="cls-6" transform="translate(0 0)"/><path d="M147.46,52c.15.72,1.3,1.1,2.58.86l.52-.1c1.28-.24,2.2-1,2.06-1.73l-.29-1.44c-.15-.72-1.31-1.1-2.59-.86l-.51.1c-1.28.24-2.2,1-2.06,1.74Z" class="cls-6" transform="translate(0 0)"/><path d="M132.49,36.58a9.05,9.05,0,0,0-16.35,7.52,8.59,8.59,0,0,0,.83,1.8,9.39,9.39,0,0,0,8.73,4.22l3.51,6.09,6.23-3.59-3.51-6.08A9.43,9.43,0,0,0,132.49,36.58Z" class="cls-6" transform="translate(0 0)"/><rect width="13.3" height="19.03" x="137.55" y="65.46" class="cls-14" transform="translate(-18.17 82.15) rotate(-30)"/><polygon points="148.6 83.42 140.51 68.57 149.32 83.01 148.6 83.42" class="cls-7"/><path d="M144,49.19s-7-2.47-7.9-2.35a12,12,0,0,0-3.48.82l-1.14,5.25-5.11-1.64a11.69,11.69,0,0,0-2.45,2.6c-.55.73-1.91,8-1.91,8l-2,3.93,2.72,1.36,3-4,1.46-4.32L130.71,67l2.84,4.92h0l13.29-7.67,0,0-2.91-5-5.23-7.06,4.47.9,5-.58.18-3Z" class="cls-26" transform="translate(0 0)"/><path d="M123.06,43.67a.71.71,0,1,1-1-.26A.7.7,0,0,1,123.06,43.67Z" class="cls-5" transform="translate(0 0)"/><path d="M128.89,40.3a.71.71,0,0,1-1.23.71.72.72,0,0,1,.26-1A.73.73,0,0,1,128.89,40.3Z" class="cls-5" transform="translate(0 0)"/><rect width="1.64" height=".46" x="120.85" y="42.45" class="cls-5" transform="translate(-5.03 66.59) rotate(-30.02)"/><rect width="1.64" height=".46" x="126.68" y="39.08" class="cls-5" transform="translate(-2.58 68.98) rotate(-29.98)"/><path d="M133.76,38.8c-.12-.22-.22-.4-.33-.57a11.4,11.4,0,0,0-.87-2.1c-2.45-4.46-7.36-7.43-13-4.31s-5.8,8.85-3.34,13.32A11.9,11.9,0,0,0,117.47,47l.31.6c2.4,4.35,9.13,3.43,11.56,2.09S136.16,43.15,133.76,38.8Zm-1,2c-.84,4.38-4,2.26-6.3,3.67-2.43,1.21-2.32,5-6.47,3.35a8,8,0,0,1-2.61-1.68,7.5,7.5,0,0,1-.82-4.19c.86-4.49,2.11-1.09,6.58-3.54s2.29-5.28,6.55-3.6a7.09,7.09,0,0,1,2.88,2.62A6.74,6.74,0,0,1,132.78,40.82Z" class="cls-12" transform="translate(0 0)"/><path d="M124.54,47.78a3.62,3.62,0,0,0,5.82-3.36Z" class="cls-9" transform="translate(0 0)"/><path d="M151,22.74a22.33,22.33,0,0,0,.54,3.79L156,39.21l18.52-6-5-12.63c-.29-.8-1.62-1.88-2.08-2.55Z" class="cls-24" transform="translate(0 0)"/><path d="M171.1,72.25l.61,1.68A3.32,3.32,0,0,0,178,71.66a3.33,3.33,0,1,0,6.25-2.28l-.62-1.68Z" class="cls-5" transform="translate(0 0)"/><path d="M154.36,48.73c.45.58,0,1.71-1,2.53l-.41.33c-1,.83-2.2,1-2.65.47l-.91-1.15c-.46-.57,0-1.7,1-2.53l.41-.33c1-.83,2.19-1,2.65-.46Z" class="cls-19" transform="translate(0 0)"/><path d="M181.3,38.93c0,.73,1.09,1.31,2.39,1.29h.52c1.31,0,2.35-.63,2.33-1.35l0-1.47c0-.73-1.09-1.31-2.39-1.29h-.53c-1.29,0-2.34.63-2.32,1.36Z" class="cls-19" transform="translate(0 0)"/><path d="M169.22,21.2a9,9,0,1,0-16.9,6.48,9.37,9.37,0,0,0,7.86,5.66L162.59,40l6.75-2.46-2.4-6.6A9.39,9.39,0,0,0,169.22,21.2Z" class="cls-19" transform="translate(0 0)"/><rect width="13.3" height="19.03" x="167.44" y="51.52" class="cls-18" transform="translate(-10.38 63.22) rotate(-20)"/><polygon points="176.96 70.12 171.56 54.09 177.73 69.84 176.96 70.12" class="cls-7"/><path d="M178.35,35.61S171.88,32,171,31.92a11.78,11.78,0,0,0-3.57.2s1.29,3.89-2,5-4.75-2.5-4.75-2.5a11.62,11.62,0,0,0-2.86,2.14c-.67.62-3.28,7.56-3.28,7.56l-2.66,3.52,2.44,1.82,3.65-3.45,2.19-4,2.08,8.65,1.95,5.35h0l14.43-5.25h0l-2-5.47-3.92-7.85,4.24,1.66,5,.29.71-3Z" class="cls-21" transform="translate(0 0)"/><path d="M159.25,30.1a3.62,3.62,0,0,0,6.32-2.3Z" class="cls-9" transform="translate(0 0)"/><path d="M158.71,26.53a.71.71,0,1,1-.91-.42A.72.72,0,0,1,158.71,26.53Z" class="cls-18" transform="translate(0 0)"/><path d="M165,24.23a.72.72,0,0,1-.42.91.71.71,0,1,1-.49-1.33A.72.72,0,0,1,165,24.23Z" class="cls-18" transform="translate(0 0)"/><rect width="1.64" height=".46" x="156.69" y="25.09" class="cls-13" transform="translate(0.85 55.45) rotate(-20.02)"/><rect width="1.64" height=".46" x="163.01" y="22.79" class="cls-13" transform="translate(2.01 57.44) rotate(-20.01)"/><path d="M170.29,22.84c-2.09-8.38-9.21-9.39-13.2-7.95s-8.9,6.33-4.21,14.7l1.28-7.49Z" class="cls-13" transform="translate(0 0)"/></g></g></svg>