<?xml version="1.0" encoding="utf-8"?>
<!-- Generator: Adobe Illustrator 20.1.0, SVG Export Plug-In . SVG Version: 6.00 Build 0)  -->
<svg version="1.1" id="Ebene_1" xmlns="http://www.w3.org/2000/svg" xmlns:xlink="http://www.w3.org/1999/xlink" x="0px" y="0px"
	 viewBox="0 0 349.5 310.3" style="enable-background:new 0 0 349.5 310.3;" xml:space="preserve">
<style type="text/css">
	.st0{fill:#216194;}
	.st1{fill:#017F9F;}
	.st2{fill:#76B629;}
	.st3{fill:#A53589;}
	.st4{fill:#024F9D;}
	.st5{fill:#50568C;}
	.st6{fill:#C6D200;}
	.st7{fill:#0369B2;}
	.st8{fill:#007D75;}
	.st9{fill:#008D6D;}
	.st10{fill:#008051;}
	.st11{fill:#46942B;}
	.st12{fill:#D5146E;}
	.st13{fill:#15A338;}
	.st14{fill:#0080C7;}
	.st15{fill:#0089D0;}
	.st16{fill:#E9BB00;}
	.st17{fill:#007632;}
	.st18{fill:#C51553;}
	.st19{fill:#593872;}
	.st20{fill:#F19000;}
	.st21{fill:#F9B800;}
	.st22{fill:#FDDB00;}
	.st23{fill:#E43311;}
	.st24{fill:#B7C200;}
	.st25{fill:#E64E10;}
	.st26{fill:#079DE1;}
	.st27{fill:#93BF1F;}
</style>
<g>
	<g>
		<g>
			<path class="st0" d="M208.9,36c-5.7-1.8-11.7-3.2-17.9-4.2c0.6,2.9,1.1,6,1.6,9.1C199.9,38.9,204,39.2,208.9,36"/>
		</g>
		<g>
			<path class="st1" d="M225.5,68.1c0.8,0.1,1.5,0.3,2.3,0.5c-0.3-1.6-0.5-3.3-0.9-4.8c-0.1,0.4-0.3,0.9-0.5,1.3
				C226,66,225.7,67.1,225.5,68.1"/>
		</g>
		<g>
			<path class="st2" d="M163.6,154.9c-0.3-1-0.4-2-0.5-3c0-0.1,0-0.4-0.1-0.5c-2.9-0.1-6-0.4-8.9-0.8c4.1,17.1,9.9,27.8,16.2,27.8
				c0.9,0,1.6-0.1,2.4-0.5c-1-2.5-2.3-5.5-3.3-7.7C166.1,162.4,164.1,157.6,163.6,154.9"/>
		</g>
		<g>
			<path class="st3" d="M123.2,35.2c8.5-3.3,17.6-5.7,27.3-7.1c2.9-12.7,7-22.7,11.9-27.9c-0.1,0-0.1,0-0.3,0
				C146.2,3.7,132.4,16.7,123.2,35.2"/>
		</g>
		<g>
			<path class="st4" d="M186.6,27.8C182.5,10.6,176.7,0,170.3,0s-12.2,10.6-16.2,27.8C165,26.5,175.6,26.5,186.6,27.8"/>
		</g>
		<g>
			<path class="st5" d="M169.7,52.6c4.2-4.6,6.1-4.1,12.2-7.2c2-1,4.6-2.3,7.5-3.4c-0.6-3.8-1.3-7.4-2-10.8
				c-11.3-1.4-22.8-1.4-34.1,0c-0.9,4.1-1.6,8.4-2.3,12.9C157.8,44.9,164.4,46.8,169.7,52.6"/>
		</g>
		<g>
			<path class="st6" d="M150.2,128.4c0.9,6.7,1.9,13.1,3,18.8c3,0.4,6,0.6,9,0.9c-0.4-1.5-1-2.8-2-4.6
				C158.9,141.5,154.4,134.5,150.2,128.4"/>
		</g>
		<g>
			<path class="st7" d="M178.4,0.4L178.4,0.4c4.2,4.4,8,12.8,11,25c0.3,1,0.5,1.9,0.6,2.9c7.6,1.1,15,2.8,21.8,5.1
				c0.9-1,1.8-2.2,2.5-3.4C205.4,14.2,192.8,3.4,178.4,0.4"/>
		</g>
		<g>
			<path class="st1" d="M231.3,69.3c12.7,2.9,22.7,7,27.9,11.9c0-0.1,0-0.1,0-0.3c-2.8-13.1-12-24.7-25.6-33.6
				c-1.4,2.9-2.8,6.2-4.4,10.3C230,61.5,230.8,65.4,231.3,69.3"/>
		</g>
		<g>
			<path class="st8" d="M259.4,89.2c0-6.3-10.6-12.2-27.8-16.2c1.3,10.9,1.3,21.6,0,32.5C248.8,101.4,259.4,95.6,259.4,89.2"/>
		</g>
		<g>
			<path class="st9" d="M210,100.1l-5.3,6.3c-0.4,1-0.9,2.2-1.4,3.5c9.1-0.9,17.5-2.2,25-3.8c1.4-11.3,1.4-22.8,0-34.1
				c-1.1-0.3-2.4-0.5-3.7-0.8c0,0.3-0.1,0.5-0.1,0.8C222.8,79.2,220.9,87.3,210,100.1"/>
		</g>
		<g>
			<path class="st10" d="M231.3,109.1c-1.4,9.6-3.8,18.8-7.1,27.3c18.6-9.3,31.6-23.1,34.9-38.9v-0.1c-4.4,4.3-12.8,8.1-25,11.2
				C233.3,108.6,232.3,108.9,231.3,109.1"/>
		</g>
		<g>
			<path class="st11" d="M203.9,162.9c5.2-5.5,9.8-12.2,13.4-19.8c-3.5,1.4-7.1,2.5-10.9,3.7c0,3.4-0.6,6.2-1.3,8.9
				C204.7,157.9,204.2,160.1,203.9,162.9"/>
		</g>
		<g>
			<path class="st12" d="M92,55.3c7.2-7.5,16.6-13.6,26.5-18c6.1-13.7,15.3-26.2,27.3-33.8C118.9,11.2,97.1,31.2,87,57
				C88.1,56.5,89.1,56.2,92,55.3"/>
		</g>
		<g>
			<path class="st13" d="M194.5,132.5l-0.1,0.3c5.3,1.9,10.9,5.8,11.7,9.8c0,0.3,0.1,0.5,0.1,0.8c4.7-1.4,9.1-2.9,13.3-4.8
				c3.7-8.6,6.5-18.3,8.1-28.6c-7.9,1.6-16.6,2.9-25.9,3.8l-1.4,3.7C197.8,123.7,195.2,130.4,194.5,132.5"/>
		</g>
		<g>
			<path class="st14" d="M235,44.2c8.5,5.5,16,12.3,21,20.4c-3.2-11.3-8.6-21.7-15.7-30.7c-0.6,1.3-1.4,2.7-2.2,4.1
				C237.3,39.9,236.2,42,235,44.2"/>
		</g>
		<g>
			<path class="st15" d="M194.9,3.4c8.5,5.5,15.7,13.4,21.4,22.7c1.1-3.2,2-7,2.4-11.8C211.4,9.5,203.4,5.8,194.9,3.4"/>
		</g>
		<g>
			<path class="st16" d="M118.4,141.1c-13.7-6.1-26.2-15.3-33.8-27.3c8.5,29.5,31.7,52.7,61.2,61.2
				C133.8,167.5,124.6,154.8,118.4,141.1"/>
		</g>
		<g>
			<path class="st17" d="M222.2,141.1c-4.6,10.1-10.9,19.8-18.6,27.1c-0.1,1.3-0.1,2.5-0.3,3.9c25.5-10.1,45.3-31.7,52.9-58.3
				C248.5,125.8,236,135,222.2,141.1"/>
		</g>
		<g>
			<path class="st18" d="M116.3,42.1c-6.5,3.2-12.3,7-17.2,11.3c5.1-1.4,10.4-2.9,15-4.8C114.8,46.4,115.6,44.2,116.3,42.1"/>
		</g>
		<g>
			<path class="st19" d="M127.6,43.2c11.2,0.6,19.9,0.8,19.9,0.8c0.6-4.2,1.3-8.4,2.2-12.2c-10.4,1.6-20,4.4-28.6,8.1
				c-0.9,2.2-1.8,4.4-2.7,6.7C123.4,44.1,122.4,43.4,127.6,43.2"/>
		</g>
		<g>
			<path class="st20" d="M132.5,105.1c-4.6-2.7-8.5-6-12.2-9.1c-2.7-2.3-5.7-4.9-9-7c0,5.8,0.4,11.5,1,17.2
				c7.6,1.6,16.4,2.9,25.9,3.8c-0.5-0.8-1.1-1.5-1.9-2.2C135.2,106.9,133.9,105.8,132.5,105.1"/>
		</g>
		<g>
			<path class="st21" d="M116.3,136.4c-3.3-8.5-5.7-17.6-7.1-27.3c-12.3-2.8-21.9-6.6-27.3-11.4l-0.5,0.4
				C85.3,113.7,98.1,127.3,116.3,136.4"/>
		</g>
		<g>
			<path class="st22" d="M140.8,113.8c-10-0.9-19.4-2.2-27.9-3.9c1.6,10.4,4.4,20,8.1,28.6c8.6,3.7,18.3,6.5,28.6,8.1
				c-1.5-7.4-2.8-15.6-3.5-24.5C144.6,120,143.1,117.1,140.8,113.8"/>
		</g>
		<g>
			<path class="st23" d="M93.9,88.2l-0.1,0.1l-9,7.2c4.4,3.8,12.9,7.2,24.1,9.9c-0.8-6.1-1-12.2-0.9-18.3c-2.3-1-4.6-1.6-7-1.6
				C98.3,85.4,96,86.3,93.9,88.2"/>
		</g>
		<g>
			<path class="st24" d="M150.4,150.2c-9.6-1.4-18.8-3.8-27.3-7.1c9.3,18.6,23.1,31.6,38.9,34.9h0.1c-4.3-4.4-8.1-12.8-11.2-25
				C150.9,152.2,150.7,151.2,150.4,150.2"/>
		</g>
		<g>
			<path class="st25" d="M101,81.9c8.4,0,15.7,6.1,21.8,11.3c3.7,3,7.4,6.3,11.7,8.9c1.8,1,3.3,2.2,4.4,3.4c1.9,1.9,2.2,2.3,3.2,3.9
				c1,1.6,1.8,2.7,2.3,2.7c1,0,3.2-1.1,3.5-2.8c0.8-3.4-2.5-6.6-5.1-9c-3.5-3.4-9-9.5-10.5-12.3c-12-22.4,14.5-40.7,30.4-27.8
				c1.6-1.5,3.2-3.5,4.4-4.8c-8.5-9.3-20.7-7.1-33.1-8c-1.8-0.1-6.8-0.5-8.2-0.1c-1.5,0.5-3,1.3-3.9,1.9
				c-11.4,6.3-27.1,7.7-36.6,12.9c-2.7,8.5-4.2,17.6-4.2,27.1c0,1.5,0,3,0.1,4.6l10.4-8.2C94.4,83,97.4,81.9,101,81.9"/>
		</g>
		<g>
			<path class="st26" d="M190.7,45.4c-4.8,1.8-8.6,4.3-11.4,5.2c-5.3,1.9-6,3.4-9.9,7.7c-1.1,1.3-2.7,3.2-4.3,4.7
				c0,0.1,0,0.6,0.5,1.3c1.4,2,3.4,1.3,5.2-0.4c18.9-18,34-2.4,35.9,7c0.9,4.3,1.3,11-3.9,21.8c2.5,0.9,4.3,2.4,4.6,5.1
				c13.9-16.5,12-24,15.7-34.1c6.8-19.4,11.5-25.9,15-32.8c-4.7-5.3-9.9-10.3-15.7-14.3C218.9,44.2,202,41.3,190.7,45.4"/>
		</g>
		<g>
			<path class="st27" d="M200.2,163.1c0.5-8.2,3.8-12,2.3-19.9c-0.4-2-5.3-6.1-10.9-7.5l-1.8-0.3l1.3-4.1c0.8-2.7,4.6-12.2,7.9-20.4
				c0.4-0.9,4.6-10.6,4.4-12.3c-0.3-1.5-2-2.5-3.2-2.5s-2.4,2.2-3.7,4.4c-1.8,2.9-2.9,5.7-4.4,8.5l0,0c-1.6,3-3.4,6.2-5.3,9.6
				c-1.9,3.5-4.1,7.5-6.6,12c-1.1,2.2-3,3.3-5.3,3.3c-2,0-4.3-0.6-4.9-1.1c-0.6-0.5-15.6-17.5-19.3-21c-1.1,1.8-2.9,3-4.9,3.5
				c5.3,8,15.5,22.9,17.5,26c3,4.7,2.9,7.7,3.9,12.8c0.6,3.7,6.6,16.1,9.6,24c7.9-0.6,15.6-2.2,22.7-4.7
				C199.7,169.9,200,166.4,200.2,163.1"/>
		</g>
	</g>
	<g>
		<g>
			<path d="M17.7,310.3c-9.8,0-17.7-8-17.7-17.7c0-9.8,8-17.7,17.7-17.7c4.8,0,9.5,2,12.8,5.5l-3.3,2.7c-2.5-2.5-6-3.9-9.5-3.9
				c-7.5,0-13.4,6.1-13.4,13.4c0,7.4,6.1,13.4,13.4,13.4c3.5,0,7-1.4,9.5-3.9l3.3,2.7C27.3,308.4,22.7,310.3,17.7,310.3"/>
		</g>
		<g>
			<path d="M207.9,310.3c-9.8,0-17.7-8-17.7-17.7c0-9.8,8-17.7,17.7-17.7c4.8,0,9.5,2,12.8,5.5l-3.3,2.7c-2.5-2.5-6-3.9-9.5-3.9
				c-7.5,0-13.4,6.1-13.4,13.4c0,7.4,6.1,13.4,13.4,13.4c3.5,0,7-1.4,9.5-3.9l3.3,2.7C217.4,308.4,212.8,310.3,207.9,310.3"/>
		</g>
		<g>
			<path d="M294.9,310.3c-9.8,0-17.7-8-17.7-17.7c0-9.8,8-17.7,17.7-17.7s17.7,8,17.7,17.7C312.6,302.4,304.6,310.3,294.9,310.3
				 M294.9,279.2c-7.5,0-13.4,6.1-13.4,13.4c0,7.4,6.1,13.4,13.4,13.4c7.5,0,13.4-6.1,13.4-13.4
				C308.3,285.3,302.3,279.2,294.9,279.2"/>
		</g>
		<g>
			<path d="M53.4,310.3c-9.8,0-17.7-8-17.7-17.7c0-9.8,8-17.7,17.7-17.7s17.7,8,17.7,17.7C71.1,302.3,63,310.3,53.4,310.3
				 M53.4,279.2c-7.5,0-13.4,6.1-13.4,13.4c0,7.5,6.1,13.4,13.4,13.4c7.5,0,13.4-6.1,13.4-13.4C66.8,285.2,60.7,279.2,53.4,279.2"/>
		</g>
		<g>
			<path d="M78.5,309.6v-34h4.2c0.4,0,0.6,0.1,0.9,0.3c0.3,0.1,0.6,0.4,0.8,0.6l19.4,27.6v-28.5h4.2v33.8h-4.3
				c-0.3,0-0.6-0.1-0.9-0.3c-0.3-0.1-0.5-0.4-0.8-0.6L82.5,281v28.5L78.5,309.6L78.5,309.6z"/>
		</g>
		<g>
			<path d="M117.6,309.6v-34h4.2c0.4,0,0.6,0.1,0.9,0.3c0.3,0.1,0.6,0.4,0.8,0.6l19.4,27.6v-28.5h4.2v33.8h-4.3
				c-0.3,0-0.6-0.1-0.9-0.3s-0.5-0.4-0.8-0.6l-19.3-27.5v28.5H117.6z"/>
		</g>
		<g>
			<path d="M320,309.6v-34h4.2c0.4,0,0.6,0.1,0.9,0.3c0.3,0.1,0.6,0.4,0.8,0.6l19.4,27.6v-28.5h4.2v33.8h-4.3
				c-0.3,0-0.6-0.1-0.9-0.3s-0.5-0.4-0.8-0.6L324,281v28.5L320,309.6L320,309.6z"/>
		</g>
		<g>
			<rect x="265.6" y="275.7" width="4.2" height="33.8"/>
		</g>
		<g>
			<polygon points="239.8,309.6 239.8,279.2 226.1,279.2 226.1,275.7 258.2,275.7 258.2,279.2 244.1,279.2 244.1,309.6 			"/>
		</g>
		<g>
			<polygon points="156.9,309.6 156.9,275.7 185.6,275.7 185.6,280 161.1,280 161.1,290.9 180.4,290.9 180.4,294.4 161.1,294.4 
				161.1,305.3 185.6,305.3 185.6,309.6 			"/>
		</g>
		<g>
			<polygon points="45.1,266.7 45.1,239.2 15.6,239.2 15.6,266.7 0.9,266.7 0.9,198.8 15.6,198.8 15.6,226.4 45.1,226.4 45.1,198.8 
				59.7,198.8 59.7,266.7 			"/>
		</g>
		<g>
			<path d="M98.2,266.7c-16.2,0-29.4-13.2-29.4-29.4v-38.4h14.7v38.3c0,8.1,6.6,14.8,14.8,14.8c8.1,0,14.8-6.6,14.8-14.8v-38.3h14.7
				v38.3C127.8,253.4,114.5,266.7,98.2,266.7"/>
		</g>
		<g>
			<path d="M266.8,266.7v-16h-29.7v15.8h-14.7v-38.2c0-16.2,13.2-29.4,29.4-29.4s29.4,13.2,29.4,29.4v38.3H266.8z M237.2,237.9h29.5
				v-9.5c0-8.1-6.6-14.8-14.8-14.8c-8.1,0-14.8,6.6-14.8,14.8l0,0v9.5H237.2z"/>
		</g>
		<g>
			<path d="M339.2,266.7c-1.8,0-3.5-0.8-4.8-2.2c-0.3-0.3-0.4-0.4-0.5-0.6l-28.6-40.9v43.7h-14.7V199h10.1c1.9,0,3.7,0.8,4.8,2.2
				c0.1,0.3,0.4,0.4,0.5,0.6l28.8,40.8v-43.7h14.7v67.7L339.2,266.7L339.2,266.7z"/>
		</g>
		<g>
			<path d="M198.8,266.7v-43.7l-18.5,26.4c-1.3,1.6-3,2.5-5.2,2.5c-2,0-3.9-1-5.2-2.7l-18.5-26.4v43.7h-14.7v-67.7h10
				c0.1,0,0.1,0,0.3,0c1.9,0,3.5,0.8,4.8,2.2c0.1,0.3,0.4,0.4,0.5,0.6l22.7,32.5l22.9-32.5c0.1-0.3,0.4-0.4,0.5-0.6
				c1.3-1.4,3-2.2,4.8-2.2c0.1,0,10.1,0,10.1,0v67.7L198.8,266.7L198.8,266.7z"/>
		</g>
	</g>
</g>
</svg>
